<svg width="40" height="40" viewBox="0 0 40 40" fill="none" xmlns="http://www.w3.org/2000/svg">
<path opacity="0.35" d="M20 3.33325C10.795 3.33325 3.33337 10.7949 3.33337 19.9999C3.33337 22.6533 3.97003 25.1516 5.0717 27.3783L3.3967 34.0766C3.01503 35.6016 4.3967 36.9849 5.92336 36.6033L12.6217 34.9283C14.8484 36.0299 17.3467 36.6666 20 36.6666C29.205 36.6666 36.6667 29.2049 36.6667 19.9999C36.6667 10.7949 29.205 3.33325 20 3.33325Z" fill="#FF5454"/>
<path d="M18.3335 28.3333V19.9999C18.3335 19.0799 19.0802 18.3333 20.0002 18.3333C20.9202 18.3333 21.6668 19.0799 21.6668 19.9999V28.3333C21.6668 29.2533 20.9202 29.9999 20.0002 29.9999C19.0802 29.9999 18.3335 29.2533 18.3335 28.3333Z" fill="#FF5454"/>
<path d="M20 15C21.3807 15 22.5 13.8807 22.5 12.5C22.5 11.1193 21.3807 10 20 10C18.6193 10 17.5 11.1193 17.5 12.5C17.5 13.8807 18.6193 15 20 15Z" fill="#FF5454"/>
</svg>
