<svg width="46" height="46" viewBox="0 0 46 46" fill="none" xmlns="http://www.w3.org/2000/svg">
<path opacity="0.35" d="M11.5593 39.6864H7.77966C5.6914 39.6864 4 37.995 4 35.9068V34.017C4 31.9287 5.6914 30.2373 7.77966 30.2373H11.5593C13.6476 30.2373 15.339 31.9287 15.339 34.017V35.9068C15.339 37.995 13.6476 39.6864 11.5593 39.6864Z" fill="#0074FD"/>
<path opacity="0.35" d="M24.7881 39.6864H21.0084C18.9202 39.6864 17.2288 37.995 17.2288 35.9068V24.5678C17.2288 22.4795 18.9202 20.7881 21.0084 20.7881H24.7881C26.8763 20.7881 28.5677 22.4795 28.5677 24.5678V35.9068C28.5677 37.995 26.8763 39.6864 24.7881 39.6864Z" fill="#0074FD"/>
<path opacity="0.35" d="M38.017 39.6864H34.2373C32.149 39.6864 30.4576 37.995 30.4576 35.9068V7.55932C30.4576 5.47106 32.149 3.77966 34.2373 3.77966H38.017C40.1052 3.77966 41.7966 5.47106 41.7966 7.55932V35.9068C41.7966 37.995 40.1052 39.6864 38.017 39.6864Z" fill="#0074FD"/>
<path fill-rule="evenodd" clip-rule="evenodd" d="M21.2312 3.77968C22.1534 3.7759 22.9018 4.52427 22.898 5.44651L22.8508 15.5023C22.8451 16.8441 21.2236 17.5112 20.2749 16.5625L17.5706 13.8582L9.73543 21.6933C9.07966 22.3491 8.21978 22.6779 7.35991 22.6779C6.50004 22.6779 5.64016 22.3491 4.98439 21.6933C3.67285 20.3818 3.67285 18.2539 4.98439 16.9423L12.8196 9.10714L10.1133 6.40087C9.1646 5.45218 9.83171 3.8307 11.1735 3.82503L21.2312 3.77968Z" fill="#0074FD"/>
</svg>
