<svg width="46" height="46" viewBox="0 0 46 46" fill="none" xmlns="http://www.w3.org/2000/svg">
<path d="M36.4153 24.7881C39.5465 24.7881 42.0848 22.2498 42.0848 19.1186C42.0848 15.9875 39.5465 13.4492 36.4153 13.4492C33.2842 13.4492 30.7458 15.9875 30.7458 19.1186C30.7458 22.2498 33.2842 24.7881 36.4153 24.7881Z" fill="#0074FD"/>
<path d="M23.1865 34.2373C26.3176 34.2373 28.856 31.699 28.856 28.5678C28.856 25.4366 26.3176 22.8983 23.1865 22.8983C20.0553 22.8983 17.517 25.4366 17.517 28.5678C17.517 31.699 20.0553 34.2373 23.1865 34.2373Z" fill="#0074FD"/>
<path opacity="0.3" fill-rule="evenodd" clip-rule="evenodd" d="M34.5255 13.7969V7.77966C34.5255 6.73648 35.3721 5.88983 36.4153 5.88983C37.4585 5.88983 38.3052 6.73648 38.3052 7.77966V13.7969C37.7118 13.5852 37.0824 13.4492 36.4153 13.4492C35.7482 13.4492 35.1189 13.5852 34.5255 13.7969ZM38.3052 24.4404V38.017C38.3052 39.0602 37.4585 39.9068 36.4153 39.9068C35.3721 39.9068 34.5255 39.0602 34.5255 38.017V24.4404C35.1189 24.6521 35.7482 24.7882 36.4153 24.7882C37.0824 24.7882 37.7118 24.6521 38.3052 24.4404ZM25.0763 38.017V33.8896C24.4829 34.1013 23.8536 34.2373 23.1865 34.2373C22.5194 34.2373 21.8901 34.1013 21.2967 33.8896V38.017C21.2967 39.0602 22.1433 39.9068 23.1865 39.9068C24.2297 39.9068 25.0763 39.0602 25.0763 38.017ZM21.2967 23.246V7.77966C21.2967 6.73648 22.1433 5.88983 23.1865 5.88983C24.2297 5.88983 25.0763 6.73648 25.0763 7.77966V23.246C24.4829 23.0344 23.8536 22.8983 23.1865 22.8983C22.5194 22.8983 21.8901 23.0344 21.2967 23.246ZM11.8475 38.017V24.4404C11.2541 24.6521 10.6248 24.7882 9.9577 24.7882C9.29059 24.7882 8.66128 24.6521 8.06787 24.4404V38.017C8.06787 39.0602 8.91452 39.9068 9.9577 39.9068C11.0009 39.9068 11.8475 39.0602 11.8475 38.017ZM8.06788 13.7969V7.77967C8.06788 6.73648 8.91452 5.88983 9.95771 5.88983C11.0009 5.88983 11.8475 6.73648 11.8475 7.77967V13.7969C11.2541 13.5852 10.6248 13.4492 9.95771 13.4492C9.2906 13.4492 8.66128 13.5852 8.06788 13.7969Z" fill="#0074FD"/>
<path d="M9.9577 24.7881C13.0889 24.7881 15.6272 22.2498 15.6272 19.1186C15.6272 15.9875 13.0889 13.4492 9.9577 13.4492C6.82653 13.4492 4.28821 15.9875 4.28821 19.1186C4.28821 22.2498 6.82653 24.7881 9.9577 24.7881Z" fill="#0074FD"/>
</svg>
