<svg width="46" height="46" viewBox="0 0 46 46" fill="none" xmlns="http://www.w3.org/2000/svg">
<path opacity="0.35" d="M39.2161 13.4492H7.08902C5.52235 13.4492 4.25427 12.1811 4.25427 10.6144C4.25427 9.04774 5.52235 7.77966 7.08902 7.77966H39.2161C40.7828 7.77966 42.0509 9.04774 42.0509 10.6144C42.0509 12.1811 40.7828 13.4492 39.2161 13.4492Z" fill="#0074FD"/>
<path d="M22.2077 26.678H7.08902C5.52235 26.678 4.25427 25.4099 4.25427 23.8432C4.25427 22.2766 5.52235 21.0085 7.08902 21.0085H22.2077C23.7743 21.0085 25.0424 22.2766 25.0424 23.8432C25.0424 25.4099 23.7743 26.678 22.2077 26.678Z" fill="#0074FD"/>
<path opacity="0.35" d="M31.6568 39.9068H7.08902C5.52235 39.9068 4.25427 38.6387 4.25427 37.072C4.25427 35.5054 5.52235 34.2373 7.08902 34.2373H31.6568C33.2235 34.2373 34.4916 35.5054 34.4916 37.072C34.4916 38.6387 33.2235 39.9068 31.6568 39.9068Z" fill="#0074FD"/>
</svg>
