<svg width="47" height="47" viewBox="0 0 47 47" fill="none" xmlns="http://www.w3.org/2000/svg">
<path opacity="0.35" d="M23.4746 42.2272C33.9118 42.2272 42.3729 33.7661 42.3729 23.3288C42.3729 12.8916 33.9118 4.43054 23.4746 4.43054C13.0374 4.43054 4.57629 12.8916 4.57629 23.3288C4.57629 33.7661 13.0374 42.2272 23.4746 42.2272Z" fill="#0074FD"/>
<path d="M25.8369 32.778C25.1112 32.778 24.3855 32.5021 23.8318 31.9483L17.2174 25.3339C16.11 24.2284 16.11 22.4312 17.2174 21.3256L23.8318 14.7112C24.9393 13.6038 26.7327 13.6038 27.8402 14.7112C28.9476 15.8167 28.9476 17.614 27.8402 18.7195L23.2309 23.3288L27.8402 27.9381C28.9476 29.0437 28.9476 30.8409 27.8402 31.9465C27.2883 32.5021 26.5626 32.778 25.8369 32.778Z" fill="#0074FD"/>
</svg>
