<svg width="46" height="46" viewBox="0 0 46 46" fill="none" xmlns="http://www.w3.org/2000/svg">
<path opacity="0.35" d="M34.2237 39.9068H11.5457C8.41426 39.9068 5.87622 37.3687 5.87622 34.2373V13.4492H39.8932V34.2373C39.8932 37.3687 37.3551 39.9068 34.2237 39.9068Z" fill="#0074FD"/>
<path d="M34.2237 5.88983H11.5457C8.41426 5.88983 5.87622 8.42787 5.87622 11.5593V13.4492H39.8932V11.5593C39.8932 8.42787 37.3551 5.88983 34.2237 5.88983Z" fill="#0074FD"/>
<path fill-rule="evenodd" clip-rule="evenodd" d="M36.1136 19.1186C36.1136 20.1624 35.2675 21.0085 34.2237 21.0085C33.18 21.0085 32.3339 20.1624 32.3339 19.1186C32.3339 18.0749 33.18 17.2288 34.2237 17.2288C35.2675 17.2288 36.1136 18.0749 36.1136 19.1186ZM13.4356 26.678C13.4356 27.7217 12.5895 28.5678 11.5458 28.5678C10.502 28.5678 9.65594 27.7217 9.65594 26.678C9.65594 25.6342 10.502 24.7881 11.5458 24.7881C12.5895 24.7881 13.4356 25.6342 13.4356 26.678ZM11.5458 36.1271C12.5895 36.1271 13.4356 35.281 13.4356 34.2373C13.4356 33.1936 12.5895 32.3475 11.5458 32.3475C10.502 32.3475 9.65594 33.1936 9.65594 34.2373C9.65594 35.281 10.502 36.1271 11.5458 36.1271ZM20.9949 34.2373C20.9949 35.281 20.1488 36.1271 19.1051 36.1271C18.0614 36.1271 17.2153 35.281 17.2153 34.2373C17.2153 33.1936 18.0614 32.3475 19.1051 32.3475C20.1488 32.3475 20.9949 33.1936 20.9949 34.2373ZM28.5542 34.2373C28.5542 35.281 27.7081 36.1271 26.6644 36.1271C25.6207 36.1271 24.7746 35.281 24.7746 34.2373C24.7746 33.1936 25.6207 32.3475 26.6644 32.3475C27.7081 32.3475 28.5542 33.1936 28.5542 34.2373ZM19.1051 28.5678C20.1488 28.5678 20.9949 27.7217 20.9949 26.678C20.9949 25.6342 20.1488 24.7881 19.1051 24.7881C18.0614 24.7881 17.2153 25.6342 17.2153 26.678C17.2153 27.7217 18.0614 28.5678 19.1051 28.5678ZM28.5542 26.678C28.5542 27.7217 27.7081 28.5678 26.6644 28.5678C25.6207 28.5678 24.7746 27.7217 24.7746 26.678C24.7746 25.6342 25.6207 24.7881 26.6644 24.7881C27.7081 24.7881 28.5542 25.6342 28.5542 26.678ZM34.2237 28.5678C35.2675 28.5678 36.1136 27.7217 36.1136 26.678C36.1136 25.6342 35.2675 24.7881 34.2237 24.7881C33.18 24.7881 32.3339 25.6342 32.3339 26.678C32.3339 27.7217 33.18 28.5678 34.2237 28.5678ZM26.6644 21.0085C27.7081 21.0085 28.5542 20.1624 28.5542 19.1186C28.5542 18.0749 27.7081 17.2288 26.6644 17.2288C25.6207 17.2288 24.7746 18.0749 24.7746 19.1186C24.7746 20.1624 25.6207 21.0085 26.6644 21.0085ZM20.9949 19.1186C20.9949 20.1624 20.1488 21.0085 19.1051 21.0085C18.0614 21.0085 17.2153 20.1624 17.2153 19.1186C17.2153 18.0749 18.0614 17.2288 19.1051 17.2288C20.1488 17.2288 20.9949 18.0749 20.9949 19.1186Z" fill="#0074FD"/>
</svg>
