<svg width="46" height="46" viewBox="0 0 46 46" fill="none" xmlns="http://www.w3.org/2000/svg">
<path opacity="0.35" d="M22.9492 42.1458C33.3865 42.1458 41.8475 33.6847 41.8475 23.2475C41.8475 12.8102 33.3865 4.34918 22.9492 4.34918C12.512 4.34918 4.0509 12.8102 4.0509 23.2475C4.0509 33.6847 12.512 42.1458 22.9492 42.1458Z" fill="#0074FD"/>
<path d="M28.2633 31.2131L14.9835 17.9333C14.2578 17.2076 14.2578 16.0283 14.9835 15.3026L15.0043 15.2819C15.73 14.5562 16.9092 14.5562 17.6349 15.2819L30.9148 28.5617C31.6404 29.2874 31.6404 30.4666 30.9148 31.1923L30.894 31.2131C30.1683 31.9388 28.989 31.9388 28.2633 31.2131Z" fill="#0074FD"/>
<path d="M14.9835 28.5617L28.2633 15.2819C28.989 14.5562 30.1683 14.5562 30.894 15.2819L30.9148 15.3026C31.6404 16.0283 31.6404 17.2076 30.9148 17.9333L17.6349 31.2131C16.9092 31.9388 15.73 31.9388 15.0043 31.2131L14.9835 31.1923C14.2578 30.4666 14.2578 29.2874 14.9835 28.5617Z" fill="#0074FD"/>
</svg>
