<svg width="46" height="47" viewBox="0 0 46 47" fill="none" xmlns="http://www.w3.org/2000/svg">
    <linearGradient id="Gradient1" x1="0" y1="1" x2="1" y2="0">
      <stop class="stop1" offset="20%" />
      <stop class="stop3" offset="100%" />
    </linearGradient>
        <style>
      <![CDATA[
              #rect1 { fill: url(#Gradient1); }
              .stop1 { stop-color: #0074FD; }
              .stop3 { stop-color: #2AF598; }
            ]]>
    </style>
<path opacity="0.35" d="M22.8982 40.3373C32.2918 40.3373 39.9067 32.7224 39.9067 23.3288C39.9067 13.9353 32.2918 6.32037 22.8982 6.32037C13.5047 6.32037 5.88977 13.9353 5.88977 23.3288C5.88977 32.7224 13.5047 40.3373 22.8982 40.3373Z" fill="#FFFFFF"/>
<path id="rect1" d="M22.8983 4.43054C12.4664 4.43054 4 12.897 4 23.3288C4 33.7607 12.4664 42.2272 22.8983 42.2272C33.3302 42.2272 41.7966 33.7607 41.7966 23.3288C41.7966 12.897 33.3302 4.43054 22.8983 4.43054ZM22.8983 38.4475C14.5396 38.4475 7.77966 31.6876 7.77966 23.3288C7.77966 14.9701 14.5396 8.2102 22.8983 8.2102C31.257 8.2102 38.017 14.9701 38.017 23.3288C38.017 31.6876 31.257 38.4475 22.8983 38.4475Z" fill="#0074FD"/>
<path id="rect1" d="M21.0084 30.8882C20.5246 30.8882 20.0408 30.703 19.6723 30.3345L14.0028 24.665C13.2639 23.9261 13.2639 22.7317 14.0028 21.9928C14.7417 21.2538 15.9361 21.2538 16.675 21.9928L21.0084 26.3261L29.1214 18.2131C29.8604 17.4742 31.0547 17.4742 31.7937 18.2131C32.5326 18.952 32.5326 20.1464 31.7937 20.8853L22.3445 30.3345C21.976 30.703 21.4922 30.8882 21.0084 30.8882Z" fill="#0074FD"/>
</svg>
