<svg width="47" height="46" viewBox="0 0 47 46" fill="none" xmlns="http://www.w3.org/2000/svg">
<path d="M38.5932 32.1271V35.9068H8.35596V32.1271C6.26769 32.1271 4.57629 33.8185 4.57629 35.9068C4.57629 37.9932 6.26769 39.6864 8.35596 39.6864C9.49174 39.6864 37.4575 39.6864 38.5932 39.6864C40.6815 39.6864 42.3729 37.9932 42.3729 35.9068C42.3729 33.8185 40.6815 32.1271 38.5932 32.1271Z" fill="#0074FD"/>
<path opacity="0.35" d="M32.9238 4.56205C31.8806 5.60524 30.1873 5.60524 29.1441 4.56205C28.1009 3.51887 26.4076 3.51887 25.3644 4.56205C24.3212 5.60524 22.628 5.60524 21.5848 4.56205C20.5416 3.51887 18.8483 3.51887 17.8051 4.56205C16.7619 5.60524 15.0686 5.60524 14.0254 4.56205C12.9823 3.51887 11.289 3.51887 10.2458 4.56205L9.13835 5.66949C8.63754 6.1703 8.35596 6.85064 8.35596 7.55932V35.9068H38.5932V7.55932C38.5932 6.85064 38.3117 6.1703 37.8109 5.66949L36.7034 4.56205C35.6602 3.51887 33.9669 3.51887 32.9238 4.56205Z" fill="#0074FD"/>
<path fill-rule="evenodd" clip-rule="evenodd" d="M31.0339 17.0085H15.9152C14.8701 17.0085 14.0254 16.1618 14.0254 15.1187C14.0254 14.0755 14.8701 13.2288 15.9152 13.2288H31.0339C32.0789 13.2288 32.9237 14.0755 32.9237 15.1187C32.9237 16.1618 32.0789 17.0085 31.0339 17.0085ZM23.4746 24.5678H15.9153C14.8702 24.5678 14.0254 23.7212 14.0254 22.678C14.0254 21.6348 14.8702 20.7881 15.9153 20.7881H23.4746C24.5197 20.7881 25.3644 21.6348 25.3644 22.678C25.3644 23.7212 24.5197 24.5678 23.4746 24.5678ZM32.9237 22.678C32.9237 23.7217 32.0776 24.5678 31.0339 24.5678C29.9902 24.5678 29.1441 23.7217 29.1441 22.678C29.1441 21.6342 29.9902 20.7881 31.0339 20.7881C32.0776 20.7881 32.9237 21.6342 32.9237 22.678ZM23.4746 32.1271H15.9153C14.8702 32.1271 14.0254 31.2805 14.0254 30.2373C14.0254 29.1941 14.8702 28.3475 15.9153 28.3475H23.4746C24.5197 28.3475 25.3644 29.1941 25.3644 30.2373C25.3644 31.2805 24.5197 32.1271 23.4746 32.1271ZM32.9237 30.2373C32.9237 31.281 32.0776 32.1271 31.0339 32.1271C29.9902 32.1271 29.1441 31.281 29.1441 30.2373C29.1441 29.1936 29.9902 28.3475 31.0339 28.3475C32.0776 28.3475 32.9237 29.1936 32.9237 30.2373Z" fill="#0074FD"/>
</svg>
