<svg width="47" height="46" viewBox="0 0 47 46" fill="none" xmlns="http://www.w3.org/2000/svg">
<path opacity="0.35" d="M23.4101 41.7966C33.8474 41.7966 42.3085 33.3356 42.3085 22.8983C42.3085 12.4611 33.8474 4 23.4101 4C12.9729 4 4.51184 12.4611 4.51184 22.8983C4.51184 33.3356 12.9729 41.7966 23.4101 41.7966Z" fill="#0074FD"/>
<path d="M29.4633 26.2792L27.2579 23.4275C26.5964 22.5714 26.1939 21.5433 26.0956 20.4661L25.3 11.5593C25.3 10.5161 24.4534 9.66949 23.4102 9.66949C22.367 9.66949 21.5203 10.5161 21.5203 11.5593L20.8003 20.7911C20.6586 22.6054 21.3975 24.378 22.7865 25.5554L26.7911 28.9514C27.53 29.6904 28.7263 29.6904 29.4633 28.9514C30.2022 28.2144 30.2022 27.0162 29.4633 26.2792Z" fill="#0074FD"/>
</svg>
