<svg width="47" height="46" viewBox="0 0 47 46" fill="none" xmlns="http://www.w3.org/2000/svg">
<path opacity="0.35" d="M30.2416 7.55932C31.8072 7.55932 33.0764 6.29016 33.0764 4.72458C33.0764 3.15899 31.8072 1.88983 30.2416 1.88983C28.676 1.88983 27.4069 3.15899 27.4069 4.72458C27.4069 6.29016 28.676 7.55932 30.2416 7.55932Z" fill="#0074FD"/>
<path opacity="0.35" d="M34.9661 11.339H21.6428C21.7033 11.0328 21.7373 10.7172 21.7373 10.3941C21.7373 7.78421 19.6226 5.66949 17.0127 5.66949C14.4029 5.66949 12.2881 7.78421 12.2881 10.3941C12.2881 10.7172 12.3222 11.0328 12.3826 11.339H12.2881C9.15669 11.339 6.61865 13.877 6.61865 17.0085V34.017C6.61865 37.1484 9.15669 39.6864 12.2881 39.6864H34.9661C38.0976 39.6864 40.6356 37.1484 40.6356 34.017V17.0085C40.6356 13.877 38.0976 11.339 34.9661 11.339Z" fill="#888888"/>
<path d="M34.0213 28.3475C35.5869 28.3475 36.856 27.0783 36.856 25.5127C36.856 23.9471 35.5869 22.678 34.0213 22.678C32.4557 22.678 31.1865 23.9471 31.1865 25.5127C31.1865 27.0783 32.4557 28.3475 34.0213 28.3475Z" fill="#888888"/>
<path d="M30.2415 0C27.6317 0 25.517 2.11472 25.517 4.72458C25.517 7.33443 27.6317 9.44915 30.2415 9.44915C32.8514 9.44915 34.9661 7.33443 34.9661 4.72458C34.9661 2.11472 32.8514 0 30.2415 0ZM30.8406 6.48023C30.8406 6.75992 30.6138 6.9867 30.3341 6.9867C30.0545 6.9867 29.8277 6.75992 29.8277 6.48023V3.62092L29.5555 3.82691C29.3382 3.99132 29.0226 3.92707 28.8884 3.68895C28.7731 3.48863 28.828 3.2335 29.015 3.09743L29.7596 2.55316C29.8768 2.46812 30.0167 2.42087 30.1622 2.42087C30.5382 2.42087 30.8425 2.72514 30.8425 3.10121V6.48023H30.8406Z" fill="#888888"/>
<path d="M12.2881 11.339H17.5211C17.5211 11.3352 17.523 11.3333 17.523 11.3295C17.523 10.6775 16.8559 10.3827 16.6026 10.3827C16.3947 10.3827 16.1869 10.413 16.0017 10.4545C15.6747 10.5245 15.3705 10.2561 15.3818 9.92161L15.4593 7.79366C15.4725 7.40625 15.7919 7.10199 16.1774 7.10199H18.0465C18.3847 7.10199 18.6607 7.37601 18.6607 7.71618C18.6607 8.05446 18.3866 8.33038 18.0465 8.33038H16.6726L16.6291 9.40947C16.7009 9.37923 16.7822 9.35655 16.8729 9.33765C16.9636 9.31876 17.043 9.3112 17.1072 9.3112C18.5643 9.3112 18.8855 10.6832 18.8818 11.2861C18.8818 11.3031 18.878 11.322 18.878 11.339H23.5307C23.5761 11.0272 23.6271 10.7172 23.6271 10.3941C23.6271 6.74103 20.6658 3.77966 17.0127 3.77966C13.3597 3.77966 10.3983 6.74103 10.3983 10.3941C10.3983 10.8231 10.4475 11.2407 10.5249 11.647C11.0824 11.4637 11.6683 11.339 12.2881 11.339Z" fill="#888888"/>
</svg>
