<svg width="47" height="46" viewBox="0 0 47 46" fill="none" xmlns="http://www.w3.org/2000/svg">
<path opacity="0.35" d="M12.0848 39.6864H8.30517C6.21691 39.6864 4.52551 37.995 4.52551 35.9068V30.2373C4.52551 28.149 6.21691 26.4576 8.30517 26.4576H12.0848C14.1731 26.4576 15.8645 28.149 15.8645 30.2373V35.9068C15.8645 37.995 14.1731 39.6864 12.0848 39.6864Z" fill="#0074FD"/>
<path opacity="0.35" d="M38.5425 39.6864H34.7628C32.6746 39.6864 30.9832 37.995 30.9832 35.9068V24.5678C30.9832 22.4795 32.6746 20.7881 34.7628 20.7881H38.5425C40.6307 20.7881 42.3221 22.4795 42.3221 24.5678V35.9068C42.3221 37.995 40.6307 39.6864 38.5425 39.6864Z" fill="#0074FD"/>
<path opacity="0.35" d="M25.3136 39.6864H21.5339C19.4457 39.6864 17.7543 37.9951 17.7543 35.9068V18.8983C17.7543 16.8101 19.4457 15.1187 21.5339 15.1187H25.3136C27.4019 15.1187 29.0933 16.8101 29.0933 18.8983V35.9068C29.0933 37.9951 27.4019 39.6864 25.3136 39.6864Z" fill="#0074FD"/>
<path d="M10.231 17.0085C9.57716 17.0085 8.94217 16.6702 8.59256 16.0655C8.06907 15.1602 8.379 14.0055 9.28045 13.4839L22.4753 5.85092C22.9194 5.5939 23.4466 5.53154 23.9342 5.66572L37.163 9.39435C38.1665 9.67783 38.7524 10.721 38.4689 11.7264C38.1854 12.7299 37.1441 13.3157 36.1368 13.0323L23.6753 9.52097L11.176 16.7534C10.8755 16.9272 10.5504 17.0085 10.231 17.0085Z" fill="#0074FD"/>
<path d="M36.6526 15.1186C38.74 15.1186 40.4322 13.4264 40.4322 11.339C40.4322 9.25154 38.74 7.55933 36.6526 7.55933C34.5651 7.55933 32.8729 9.25154 32.8729 11.339C32.8729 13.4264 34.5651 15.1186 36.6526 15.1186Z" fill="#0074FD"/>
<path d="M23.4238 11.339C25.5113 11.339 27.2035 9.64677 27.2035 7.55932C27.2035 5.47187 25.5113 3.77966 23.4238 3.77966C21.3364 3.77966 19.6442 5.47187 19.6442 7.55932C19.6442 9.64677 21.3364 11.339 23.4238 11.339Z" fill="#0074FD"/>
<path d="M10.1949 18.8983C12.2824 18.8983 13.9746 17.2061 13.9746 15.1187C13.9746 13.0312 12.2824 11.339 10.1949 11.339C8.1075 11.339 6.41528 13.0312 6.41528 15.1187C6.41528 17.2061 8.1075 18.8983 10.1949 18.8983Z" fill="#0074FD"/>
</svg>
