<svg width="47" height="46" viewBox="0 0 47 46" fill="none" xmlns="http://www.w3.org/2000/svg">
    <linearGradient id="Gradient1" x1="0" y1="1" x2="1" y2="0">
        <stop class="stop1" offset="20%" />
        <stop class="stop3" offset="100%" />
    </linearGradient>
    <style>
        <![CDATA[
              #rect1 { fill: url(#Gradient1); }
              .stop1 { stop-color: #0074FD; }
              .stop3 { stop-color: #2AF598; }
            ]]>
    </style>
<path id="rect1" opacity="1" d="M34.9152 40.256H12.2372C9.10579 40.256 6.56775 37.7179 6.56775 34.5865V11.9085C6.56775 8.77706 9.10579 6.23901 12.2372 6.23901H34.9152C38.0467 6.23901 40.5847 8.77706 40.5847 11.9085V34.5865C40.5847 37.7179 38.0467 40.256 34.9152 40.256Z" fill="#0074FD"/>
<path fill-rule="evenodd" clip-rule="evenodd" d="M27.3559 21.3577H33.0254C34.0686 21.3577 34.9153 20.511 34.9153 19.4678V13.7983C34.9153 12.7551 34.0686 11.9085 33.0254 11.9085H27.3559C26.3128 11.9085 25.4661 12.7551 25.4661 13.7983V19.4678C25.4661 20.511 26.3128 21.3577 27.3559 21.3577ZM19.7966 21.3577H14.1271C13.0839 21.3577 12.2373 20.511 12.2373 19.4678V13.7983C12.2373 12.7552 13.0839 11.9085 14.1271 11.9085H19.7966C20.8398 11.9085 21.6865 12.7552 21.6865 13.7983V19.4678C21.6865 20.511 20.8398 21.3577 19.7966 21.3577ZM14.1271 34.5865H19.7966C20.8398 34.5865 21.6865 33.7398 21.6865 32.6966V27.0271C21.6865 25.984 20.8398 25.1373 19.7966 25.1373H14.1271C13.0839 25.1373 12.2373 25.984 12.2373 27.0271V32.6966C12.2373 33.7398 13.0839 34.5865 14.1271 34.5865ZM27.3559 34.5865H33.0254C34.0686 34.5865 34.9153 33.7398 34.9153 32.6966V27.0271C34.9153 25.984 34.0686 25.1373 33.0254 25.1373H27.3559C26.3128 25.1373 25.4661 25.984 25.4661 27.0271V32.6966C25.4661 33.7398 26.3128 34.5865 27.3559 34.5865Z" fill="white"/>
</svg>
