<svg width="47" height="46" viewBox="0 0 47 46" fill="none" xmlns="http://www.w3.org/2000/svg">
<path opacity="0.35" d="M39.5889 7.55933C38.8594 7.55933 25.1997 7.55933 24.4702 7.55933C22.9055 7.55933 21.6355 8.82929 21.6355 10.3941C21.6355 11.9589 22.9055 13.2288 24.4702 13.2288C25.1997 13.2288 38.8594 13.2288 39.5889 13.2288C41.1537 13.2288 42.4236 11.9589 42.4236 10.3941C42.4236 8.82929 41.1537 7.55933 39.5889 7.55933Z" fill="#0074FD"/>
<path opacity="0.35" d="M39.5889 20.7881C38.8594 20.7881 25.1997 20.7881 24.4702 20.7881C22.9055 20.7881 21.6355 22.0581 21.6355 23.6229C21.6355 25.1877 22.9055 26.4576 24.4702 26.4576C25.1997 26.4576 38.8594 26.4576 39.5889 26.4576C41.1537 26.4576 42.4236 25.1877 42.4236 23.6229C42.4236 22.0581 41.1537 20.7881 39.5889 20.7881Z" fill="#0074FD"/>
<path opacity="0.35" d="M39.5889 34.017C38.8594 34.017 25.1997 34.017 24.4702 34.017C22.9055 34.017 21.6355 35.2869 21.6355 36.8517C21.6355 38.4165 22.9055 39.6864 24.4702 39.6864C25.1997 39.6864 38.8594 39.6864 39.5889 39.6864C41.1537 39.6864 42.4236 38.4165 42.4236 36.8517C42.4236 35.2869 41.1537 34.017 39.5889 34.017Z" fill="#0074FD"/>
<path fill-rule="evenodd" clip-rule="evenodd" d="M8.87919 14.6462H13.6038C14.647 14.6462 15.4936 13.7995 15.4936 12.7564V8.03178C15.4936 6.98859 14.647 6.14195 13.6038 6.14195H8.87919C7.83601 6.14195 6.98936 6.98859 6.98936 8.03178V12.7564C6.98936 13.7995 7.83601 14.6462 8.87919 14.6462ZM11.2415 28.3475C13.8508 28.3475 15.9661 26.2322 15.9661 23.6229C15.9661 21.0136 13.8508 18.8983 11.2415 18.8983C8.63217 18.8983 6.5169 21.0136 6.5169 23.6229C6.5169 26.2322 8.63217 28.3475 11.2415 28.3475ZM9.48992 33.1704L6.43595 38.4241C5.62144 39.8226 6.63061 41.5763 8.2483 41.5763H14.2353C15.836 41.5763 16.847 39.8547 16.0665 38.4562L13.1335 33.2025C12.3417 31.7832 10.3063 31.7643 9.48992 33.1704Z" fill="#0074FD"/>
</svg>
