<svg width="46" height="46" viewBox="0 0 46 46" fill="none" xmlns="http://www.w3.org/2000/svg">
<path opacity="0.35" d="M42.2804 11.8851L36.4144 6.07391C35.5885 5.25751 34.1863 5.84335 34.1863 7.00371V9.44915H7.72864C5.64037 9.44915 3.94897 11.1405 3.94897 13.2288C3.94897 15.3171 5.64037 17.0085 7.72864 17.0085H34.1863V19.4539C34.1863 20.6162 35.5885 21.2001 36.4125 20.3818L42.2785 14.5706C43.0269 13.8317 43.0269 12.626 42.2804 11.8851Z" fill="#FFFFFF"/>
<path d="M4.50859 33.4689L10.3746 39.2801C11.2005 40.0984 12.6008 39.5126 12.6008 38.3522V35.9068H39.0585C41.1467 35.9068 42.8381 34.2154 42.8381 32.1271C42.8381 30.0389 41.1467 28.3475 39.0585 28.3475H12.6008V25.902C12.6008 24.7398 11.1986 24.1558 10.3746 24.9741L4.50859 30.7853C3.76211 31.5243 3.76211 32.73 4.50859 33.4689Z" fill="#FFFFFF"/>
</svg>
