<svg width="46" height="46" viewBox="0 0 46 46" fill="none" xmlns="http://www.w3.org/2000/svg">
<path opacity="0.35" d="M40.4935 23.2758L37.2241 19.2959C36.3132 10.973 30.2374 4.34918 20.7882 4.34918C10.1353 4.34918 3.82324 11.7724 3.82324 21.3577C3.82324 28.2329 7.38935 31.3681 8.84263 36.1588C9.57589 38.574 11.7586 40.256 14.2816 40.256H30.587C33.2876 40.256 35.614 38.3491 36.145 35.7015L37.1353 30.7615L39.2595 29.6068C41.5669 28.35 42.1603 25.3055 40.4935 23.2758Z" fill="#0074FD"/>
<path fill-rule="evenodd" clip-rule="evenodd" d="M18.3805 30.7331C18.5524 30.7822 18.7263 30.8068 18.9002 30.8068C19.7223 30.8068 20.4782 30.2663 20.7163 29.4348L24.496 16.2059C24.7813 15.2024 24.1993 14.1574 23.1958 13.8701C22.1998 13.5866 21.1472 14.163 20.8599 15.1684L17.0803 28.3972C16.7949 29.4007 17.377 30.4458 18.3805 30.7331ZM13.2307 28.9169C12.6751 28.9169 12.127 28.675 11.7529 28.2083L7.9732 23.4837C7.42136 22.7939 7.42136 21.8131 7.9732 21.1233L11.7529 16.3987C12.4067 15.5842 13.5936 15.4519 14.41 16.1039C15.2245 16.7559 15.3568 17.9446 14.7048 18.7591L11.8681 22.3025L14.7048 25.846C15.3568 26.6605 15.2226 27.8511 14.41 28.5012C14.0603 28.7809 13.6446 28.9169 13.2307 28.9169ZM28.3459 28.9169C27.932 28.9169 27.5162 28.7809 27.1666 28.5031C26.3521 27.8511 26.2198 26.6624 26.8718 25.8479L29.7084 22.3025L26.8718 18.7591C26.2198 17.9446 26.354 16.754 27.1666 16.1039C27.9849 15.4519 29.1717 15.5842 29.8237 16.3987L33.6034 21.1233C34.1552 21.8131 34.1552 22.7939 33.6034 23.4837L29.8237 28.2083C29.4495 28.675 28.9015 28.9169 28.3459 28.9169Z" fill="#0074FD"/>
</svg>
