<svg width="46" height="46" viewBox="0 0 46 46" fill="none" xmlns="http://www.w3.org/2000/svg">
<path opacity="0.35" d="M23 3.77966C12.5625 3.77966 4.10168 12.2404 4.10168 22.678C4.10168 33.1155 12.5625 41.5763 23 41.5763C33.4375 41.5763 41.8983 33.1155 41.8983 22.678C41.8983 12.2404 33.4375 3.77966 23 3.77966ZM23 28.3475C19.8685 28.3475 17.3305 25.8094 17.3305 22.678C17.3305 19.5465 19.8685 17.0085 23 17.0085C26.1314 17.0085 28.6695 19.5465 28.6695 22.678C28.6695 25.8094 26.1314 28.3475 23 28.3475Z" fill="#0074FD"/>
<path d="M25.1223 3.89682C23.9959 3.77209 23 4.6433 23 5.7772C23 8.42674 23 13.2118 23 17.016C26.1182 17.0122 28.6657 19.5597 28.6695 22.678H39.8913C41.0252 22.678 41.9078 21.682 41.7811 20.5557C40.8041 11.8133 33.8646 4.87386 25.1223 3.89682Z" fill="#0074FD"/>
</svg>
