<svg width="46" height="46" viewBox="0 0 46 46" fill="none" xmlns="http://www.w3.org/2000/svg">
<path opacity="0.35" d="M34.4915 36.4763H11.8135C8.68209 36.4763 6.14404 33.9383 6.14404 30.8068V15.6901L9.08273 9.48196C10.0201 7.50142 12.0157 6.23901 14.2061 6.23901H32.0971C34.2893 6.23901 36.2849 7.50142 37.2223 9.48385L40.161 15.6901V30.8068C40.161 33.9383 37.6229 36.4763 34.4915 36.4763Z" fill="#0074FD"/>
<path d="M25.0423 17.578V25.1373H29.3984C30.5644 25.1373 31.1503 26.5434 30.3301 27.3711L24.5 33.2579C23.7573 34.0063 22.5478 34.0063 21.8051 33.2579L15.9749 27.3711C15.1548 26.5434 15.7425 25.1373 16.9066 25.1373H21.2627V17.578C21.2627 16.5348 20.416 15.6882 19.3729 15.6882H6.14404V34.5865C6.14404 37.7179 8.68209 40.256 11.8135 40.256H34.4915C37.6229 40.256 40.161 37.7179 40.161 34.5865V15.6882H26.9322C25.889 15.6882 25.0423 16.5348 25.0423 17.578Z" fill="#0074FD"/>
</svg>
