<svg width="46" height="47" viewBox="0 0 46 47" fill="none" xmlns="http://www.w3.org/2000/svg">
<path opacity="0.35" d="M23 42.2272C33.4372 42.2272 41.8983 33.7661 41.8983 23.3288C41.8983 12.8916 33.4372 4.43054 23 4.43054C12.5627 4.43054 4.10168 12.8916 4.10168 23.3288C4.10168 33.7661 12.5627 42.2272 23 42.2272Z" fill=""/>
<path d="M32.4491 20.9665C32.4491 21.6922 32.1732 22.4179 31.6195 22.9716L25.0051 29.586C23.8995 30.6935 22.1023 30.6935 20.9967 29.586L14.3823 22.9716C13.2749 21.8642 13.2749 20.0707 14.3823 18.9633C15.4879 17.8559 17.2851 17.8559 18.3907 18.9633L23 23.5726L27.6093 18.9633C28.7148 17.8559 30.512 17.8559 31.6176 18.9633C32.1732 19.5151 32.4491 20.2408 32.4491 20.9665Z" fill="#0074FD"/>
</svg>
