<svg width="47" height="46" viewBox="0 0 47 46" fill="none" xmlns="http://www.w3.org/2000/svg">
<path opacity="0.35" d="M38.5633 8.10803C36.0725 5.61723 32.0339 5.61723 29.5431 8.10803L8.6983 28.9132C8.12757 29.4839 7.74771 30.2153 7.60975 31.0109L6.44751 37.7519C6.19616 39.2109 7.46424 40.477 8.92319 40.2238L15.5848 39.0653C16.3748 38.9274 17.1043 38.5494 17.6712 37.9825L38.5633 17.1263C41.056 14.6355 41.056 10.5988 38.5633 8.10803Z" fill="#0074FD"/>
<path d="M25.4553 12.1806L34.4755 21.2008L38.2249 17.4646L29.2047 8.44443L25.4553 12.1806Z" fill="#0074FD"/>
<path d="M7.15619 33.6415L6.44751 37.7519C6.19616 39.2109 7.46424 40.4771 8.92319 40.2238L13.026 39.5095L7.15619 33.6415Z" fill="#0074FD"/>
</svg>
