<svg width="46" height="46" viewBox="0 0 46 46" fill="none" xmlns="http://www.w3.org/2000/svg">
<path opacity="0.35" d="M32.4491 42.1458H13.5508C10.4194 42.1458 7.88135 39.6077 7.88135 36.4763V10.0187C7.88135 6.88722 10.4194 4.34918 13.5508 4.34918H32.4491C35.5806 4.34918 38.1186 6.88722 38.1186 10.0187V36.4763C38.1186 39.6077 35.5806 42.1458 32.4491 42.1458Z" fill="#0074FD"/>
<path fill-rule="evenodd" clip-rule="evenodd" d="M21.4541 30.4251C20.6264 31.2453 19.2203 30.6594 19.2203 29.4934V27.0271H7.88134C5.79308 27.0271 4.10168 25.3357 4.10168 23.2475C4.10168 21.1592 5.79308 19.4678 7.88134 19.4678H19.2203V17.0016C19.2203 15.8375 20.6264 15.2497 21.4541 16.0699L27.339 21.9C28.0874 22.6427 28.0874 23.8522 27.339 24.5949L21.4541 30.4251Z" fill="#0074FD"/>
</svg>
