<svg width="46" height="46" viewBox="0 0 46 46" fill="none" xmlns="http://www.w3.org/2000/svg">
<path opacity="0.35" d="M32.5508 41.5763H13.6525C10.5211 41.5763 7.98303 39.0382 7.98303 35.9068V9.44915C7.98303 6.31771 10.5211 3.77966 13.6525 3.77966H32.5508C35.6823 3.77966 38.2203 6.31771 38.2203 9.44915V35.9068C38.2203 39.0382 35.6823 41.5763 32.5508 41.5763Z" fill="#0074FD"/>
<path fill-rule="evenodd" clip-rule="evenodd" d="M36.6744 29.8556C35.8467 30.6757 34.4407 30.0899 34.4407 28.9239V26.4576H23.1017C21.0134 26.4576 19.322 24.7662 19.322 22.678C19.322 20.5897 21.0134 18.8983 23.1017 18.8983H34.4407V16.4321C34.4407 15.268 35.8467 14.6802 36.6744 15.5004L42.5594 21.3305C43.3077 22.0732 43.3077 23.2827 42.5594 24.0254L36.6744 29.8556Z" fill="#0074FD"/>
</svg>
