<svg width="47" height="46" viewBox="0 0 47 46" fill="none" xmlns="http://www.w3.org/2000/svg">
<path opacity="0.35" d="M33.0254 43.4661H14.1271C12.0388 43.4661 10.3474 41.7747 10.3474 39.6864V5.66949C10.3474 3.58123 12.0388 1.88983 14.1271 1.88983H33.0254C35.1136 1.88983 36.805 3.58123 36.805 5.66949V39.6864C36.805 41.7747 35.1136 43.4661 33.0254 43.4661Z" fill="#0074FD"/>
<path fill-rule="evenodd" clip-rule="evenodd" d="M25.4661 9.44915H21.6865C20.6433 9.44915 19.7966 8.60251 19.7966 7.55932C19.7966 6.51614 20.6433 5.66949 21.6865 5.66949H25.4661C26.5093 5.66949 27.3559 6.51614 27.3559 7.55932C27.3559 8.60251 26.5093 9.44915 25.4661 9.44915ZM36.8051 13.2288H10.3475V17.0085H36.8051V13.2288ZM21.6865 24.5678H25.4661C26.5093 24.5678 27.3559 23.7212 27.3559 22.678C27.3559 21.6348 26.5093 20.7881 25.4661 20.7881H21.6865C20.6433 20.7881 19.7966 21.6348 19.7966 22.678C19.7966 23.7212 20.6433 24.5678 21.6865 24.5678ZM25.4661 39.6864H21.6865C20.6433 39.6864 19.7966 38.8398 19.7966 37.7966C19.7966 36.7534 20.6433 35.9068 21.6865 35.9068H25.4661C26.5093 35.9068 27.3559 36.7534 27.3559 37.7966C27.3559 38.8398 26.5093 39.6864 25.4661 39.6864ZM10.3475 28.3475H36.8051V32.1271H10.3475V28.3475Z" fill="#0074FD"/>
</svg>
