<svg width="46" height="46" viewBox="0 0 46 46" fill="none" xmlns="http://www.w3.org/2000/svg">
<g clip-path="url(#clip0_360_3892)">
<path opacity="0.35" d="M7.93225 15.1187L14.7526 23.3035C16.4516 25.3407 17.3814 27.9109 17.3814 30.5623V40.775C17.3814 42.6232 18.7175 44.1994 20.5393 44.5036L25.4189 45.3163C27.148 45.6054 28.7204 44.2731 28.7204 42.5212V30.5642C28.7204 27.9109 29.6502 25.3426 31.3491 23.3054L38.1695 15.1187H7.93225Z" fill="#0074FD"/>
<path fill-rule="evenodd" clip-rule="evenodd" d="M28.7488 0.385525L25.23 3.96864C24.6101 4.59985 25.0523 5.66949 25.933 5.66949H33.3997C34.2785 5.66949 34.7207 4.59985 34.1008 3.96864L30.5839 0.385525C30.0793 -0.128508 29.2553 -0.128508 28.7488 0.385525ZM20.8721 1.70085L17.3551 5.28397C16.8486 5.798 16.0247 5.798 15.5201 5.28397L12.0012 1.70085C11.3814 1.06964 11.8236 0 12.7023 0H20.1691C21.0497 0 21.4919 1.06964 20.8721 1.70085ZM39.1144 9.44915H6.98733C5.42255 9.44915 4.15259 10.7191 4.15259 12.2839C4.15259 13.8487 5.42255 15.1186 6.98733 15.1186H39.1144C40.6792 15.1186 41.9492 13.8487 41.9492 12.2839C41.9492 10.7191 40.6792 9.44915 39.1144 9.44915Z" fill="#0074FD"/>
</g>
<defs>
<clipPath id="clip0_360_3892">
<rect width="45.3559" height="45.3559" fill="white" transform="translate(0.372925)"/>
</clipPath>
</defs>
</svg>
