<svg width="46" height="46" viewBox="0 0 46 46" fill="none" xmlns="http://www.w3.org/2000/svg">
    <linearGradient id="Gradient1" x1="0" y1="1" x2="1" y2="0">
        <stop class="stop1" offset="20%" />
        <stop class="stop3" offset="100%" />
    </linearGradient>
    <style>
        <![CDATA[
              #rect1 { fill: url(#Gradient1); }
              .stop1 { stop-color: #0074FD; }
              .stop3 { stop-color: #2AF598; }
            ]]>
    </style>
<path id="rect1" opacity="1" d="M22.678 41.5763C33.1152 41.5763 41.5763 33.1152 41.5763 22.678C41.5763 12.2407 33.1152 3.77966 22.678 3.77966C12.2407 3.77966 3.77966 12.2407 3.77966 22.678C3.77966 33.1152 12.2407 41.5763 22.678 41.5763Z" fill="#0074FD"/>
<path d="M22.4568 26.4066H22.4455C21.1793 26.4066 20.2022 25.2633 20.4196 24.016C21.081 20.2117 24.0424 20.0795 24.0424 17.7172C24.0424 17.0614 23.929 15.593 22.3491 15.593C21.4949 15.593 20.9922 16.1392 20.6993 16.7212C20.3043 17.5093 19.3934 17.8967 18.526 17.7436C17.2106 17.5093 16.4037 16.0995 16.9612 14.8862C17.7587 13.1532 19.3915 11.339 22.625 11.339C27.8712 11.339 28.5742 15.4475 28.5742 17.3789C28.5742 21.9447 25.1744 22.1148 24.4695 24.7454C24.2143 25.6941 23.4395 26.4066 22.4568 26.4066ZM25.1819 31.2446C25.1819 32.0232 24.9419 32.6808 24.46 33.2157C23.9762 33.7486 23.3431 34.017 22.5645 34.017C21.7821 34.017 21.1509 33.7486 20.669 33.2157C20.1871 32.6808 19.9433 32.0232 19.9433 31.2446C19.9433 30.483 20.1871 29.8272 20.669 29.2697C21.1509 28.716 21.7821 28.4401 22.5645 28.4401C23.3431 28.4401 23.9762 28.716 24.46 29.2697C24.9419 29.8272 25.1819 30.4849 25.1819 31.2446Z" fill="white"/>
</svg>
