<svg width="46" height="46" viewBox="0 0 46 46" fill="none" xmlns="http://www.w3.org/2000/svg">
<path opacity="0.35" d="M32.7712 41.5763H13.8729C10.7414 41.5763 8.20337 39.0382 8.20337 35.9068V9.44915C8.20337 6.31771 10.7414 3.77966 13.8729 3.77966H32.7712C35.9026 3.77966 38.4407 6.31771 38.4407 9.44915V35.9068C38.4407 39.0382 35.9026 41.5763 32.7712 41.5763Z" fill="#0074FD"/>
<path fill-rule="evenodd" clip-rule="evenodd" d="M25.9909 29.8556C26.8186 30.6758 28.2247 30.0899 28.2247 28.9239V26.4576H39.5635C41.6517 26.4576 43.3431 24.7662 43.3431 22.678C43.3431 20.5897 41.6517 18.8983 39.5635 18.8983H28.2247V16.4321C28.2247 15.2661 26.8186 14.6802 25.9909 15.5004L20.106 21.3306C19.3576 22.0733 19.3576 23.2828 20.106 24.0255L25.9909 29.8556Z" fill="#0074FD"/>
</svg>
