<svg width="46" height="46" viewBox="0 0 46 46" fill="none" xmlns="http://www.w3.org/2000/svg">
    <linearGradient id="Gradient1" x1="0" y1="1" x2="1" y2="0">
      <stop class="stop1" offset="20%" />
      <stop class="stop3" offset="100%" />
    </linearGradient>
        <style>
      <![CDATA[
              #rect1 { fill: url(#Gradient1); }
              .stop1 { stop-color: #0074FD; }
              .stop3 { stop-color: #2AF598; }
            ]]>
    </style>
<path id="rect1"  d="M23.0509 42.1458C33.4881 42.1458 41.9492 33.6847 41.9492 23.2475C41.9492 12.8102 33.4881 4.34918 23.0509 4.34918C12.6136 4.34918 4.15259 12.8102 4.15259 23.2475C4.15259 33.6847 12.6136 42.1458 23.0509 42.1458Z" fill="#0074FD"/>
<path fill-rule="evenodd" clip-rule="evenodd" d="M19.2712 23.2475H15.2437C13.7866 23.2475 13.0534 25.005 14.0795 26.0407L21.3667 33.3978C22.2946 34.3332 23.8065 34.3332 24.7344 33.3978L32.0216 26.0407C33.0478 25.005 32.3145 23.2475 30.8575 23.2475H26.8305V15.6882C26.8305 13.5999 25.1391 11.9085 23.0508 11.9085C20.9626 11.9085 19.2712 13.5999 19.2712 15.6882V23.2475Z" fill="white"/>
</svg>
