<svg width="40" height="40" viewBox="0 0 40 40" fill="none" xmlns="http://www.w3.org/2000/svg">
<path d="M35.6898 30.9767C35.2114 30.4984 32.4531 27.74 31.0214 26.3083C29.8231 28.2117 28.2114 29.8234 26.3081 31.0217C27.7398 32.4534 30.4981 35.2117 30.9764 35.69C32.2781 36.9917 34.3881 36.9917 35.6898 35.69C36.9914 34.3883 36.9914 32.2784 35.6898 30.9767Z" fill="#FFC013"/>
<path opacity="0.35" d="M18.3335 33.3333C26.6178 33.3333 33.3335 26.6175 33.3335 18.3333C33.3335 10.049 26.6178 3.33325 18.3335 3.33325C10.0492 3.33325 3.3335 10.049 3.3335 18.3333C3.3335 26.6175 10.0492 33.3333 18.3335 33.3333Z" fill="#FFC013"/>
<path d="M22.5001 26.6667C21.9235 26.6667 21.3451 26.4683 20.8735 26.065C19.8251 25.1667 19.7035 23.5883 20.6018 22.54L24.2068 18.3333L20.6018 14.1267C19.7018 13.0783 19.8251 11.5 20.8735 10.6017C21.9201 9.70334 23.5001 9.82334 24.3985 10.8733L29.3985 16.7067C30.2018 17.6433 30.2018 19.025 29.3985 19.96L24.3985 25.7933C23.9035 26.37 23.2035 26.6667 22.5001 26.6667Z" fill="#FFC013"/>
<path d="M14.1682 26.6667C13.4632 26.6667 12.7632 26.3701 12.2682 25.7951L7.26824 19.9617C6.46658 19.0251 6.46658 17.6434 7.26824 16.7067L12.2682 10.8734C13.1666 9.82508 14.7449 9.70008 15.7949 10.6017C16.8432 11.5001 16.9632 13.0784 16.0649 14.1267L12.4599 18.3334L16.0649 22.5384C16.9632 23.5867 16.8432 25.1651 15.7949 26.0634C15.3216 26.4684 14.7432 26.6667 14.1682 26.6667Z" fill="#FFC013"/>
</svg>
