<svg width="37" height="38" viewBox="0 0 37 38" fill="none" xmlns="http://www.w3.org/2000/svg">
<path opacity="0.35" d="M18.6 34.017C26.9498 34.017 33.7186 27.2481 33.7186 18.8983C33.7186 10.5485 26.9498 3.77966 18.6 3.77966C10.2502 3.77966 3.48132 10.5485 3.48132 18.8983C3.48132 27.2481 10.2502 34.017 18.6 34.017Z" fill="#0074FD"/>
<path d="M26.1593 25.1438C26.1593 26.3094 27.5653 26.896 28.3938 26.0751L34.2795 20.2454C35.0279 19.503 35.0279 18.2935 34.2795 17.5512L28.3938 11.7215C27.5653 10.9005 26.1593 11.4871 26.1593 12.6528V25.1438Z" fill="#0074FD"/>
<path d="M30.391 15.8746H18.6V21.922H30.391V15.8746Z" fill="#0074FD"/>
<path d="M18.6 21.922C20.27 21.922 21.6238 20.5683 21.6238 18.8983C21.6238 17.2283 20.27 15.8746 18.6 15.8746C16.9301 15.8746 15.5763 17.2283 15.5763 18.8983C15.5763 20.5683 16.9301 21.922 18.6 21.922Z" fill="#0074FD"/>
</svg>
