<svg width="47" height="46" viewBox="0 0 47 46" fill="none" xmlns="http://www.w3.org/2000/svg">
<path opacity="0.35" d="M4.46106 32.3475V13.4492C4.46106 10.3177 6.9991 7.77966 10.1306 7.77966H36.5882C39.7196 7.77966 42.2577 10.3177 42.2577 13.4492V32.3475C42.2577 35.4789 39.7196 38.017 36.5882 38.017H10.1306C6.9991 38.017 4.46106 35.4789 4.46106 32.3475Z" fill="#0074FD"/>
<path d="M42.2577 13.4492C42.2577 12.5458 42.0271 11.703 41.651 10.9451L26.179 20.228C24.4422 21.2712 22.2803 21.2712 20.5416 20.228L5.0677 10.9451C4.69162 11.703 4.46106 12.5458 4.46106 13.4492V17.1929L17.6218 25.0905C19.3926 26.1526 21.375 26.6836 23.3594 26.6836C25.3418 26.6836 27.328 26.1526 29.095 25.0905L42.2577 17.1929V13.4492Z" fill="#0074FD"/>
</svg>
