<svg width="47" height="47" viewBox="0 0 47 47" fill="none" xmlns="http://www.w3.org/2000/svg">
<path opacity="1" d="M23.5254 42.2272C33.9626 42.2272 42.4237 33.7661 42.4237 23.3288C42.4237 12.8916 33.9626 4.43054 23.5254 4.43054C13.0881 4.43054 4.62708 12.8916 4.62708 23.3288C4.62708 33.7661 13.0881 42.2272 23.5254 42.2272Z" fill="#D0D0D0"/>
<path d="M21.1631 13.8797C21.8888 13.8797 22.6145 14.1556 23.1682 14.7093L29.7826 21.3237C30.89 22.4293 30.89 24.2265 29.7826 25.3321L23.1682 31.9465C22.0608 33.0539 20.2673 33.0539 19.1599 31.9465C18.0524 30.8409 18.0524 29.0437 19.1599 27.9381L23.7692 23.3289L19.158 18.7196C18.0505 17.614 18.0505 15.8168 19.158 14.7112C19.7117 14.1556 20.4374 13.8797 21.1631 13.8797Z" fill="#888888"/>
</svg>
