<svg width="46" height="46" viewBox="0 0 46 46" fill="none" xmlns="http://www.w3.org/2000/svg">
<g clip-path="url(#clip0_360_3886)">
<path d="M2.16101 32.1271V34.0169C2.16101 37.1484 4.69905 39.6864 7.8305 39.6864H32.3983C29.2669 39.6864 26.7288 37.1484 26.7288 34.0169V32.1271C26.7288 30.0389 25.0374 28.3475 22.9491 28.3475H5.94067C3.85241 28.3475 2.16101 30.0389 2.16101 32.1271Z" fill="#0074FD"/>
<path d="M22.9492 13.2288C22.5976 13.2288 15.7413 13.2288 15.3898 13.2288C14.3466 13.2288 13.5 14.0755 13.5 15.1187C13.5 16.1618 14.3466 17.0085 15.3898 17.0085C15.7413 17.0085 22.5976 17.0085 22.9492 17.0085C23.9923 17.0085 24.839 16.1618 24.839 15.1187C24.839 14.0755 23.9923 13.2288 22.9492 13.2288Z" fill="#0074FD"/>
<path d="M22.9492 20.7881C22.5976 20.7881 15.7413 20.7881 15.3898 20.7881C14.3466 20.7881 13.5 21.6348 13.5 22.678C13.5 23.7211 14.3466 24.5678 15.3898 24.5678C15.7413 24.5678 22.5976 24.5678 22.9492 24.5678C23.9923 24.5678 24.839 23.7211 24.839 22.678C24.839 21.6348 23.9923 20.7881 22.9492 20.7881Z" fill="#0074FD"/>
<path d="M30.5085 17.0085C31.5522 17.0085 32.3983 16.1624 32.3983 15.1187C32.3983 14.0749 31.5522 13.2288 30.5085 13.2288C29.4648 13.2288 28.6187 14.0749 28.6187 15.1187C28.6187 16.1624 29.4648 17.0085 30.5085 17.0085Z" fill="#0074FD"/>
<path d="M30.5085 24.5678C31.5522 24.5678 32.3983 23.7217 32.3983 22.678C32.3983 21.6342 31.5522 20.7881 30.5085 20.7881C29.4648 20.7881 28.6187 21.6342 28.6187 22.678C28.6187 23.7217 29.4648 24.5678 30.5085 24.5678Z" fill="#0074FD"/>
<path opacity="0.35" d="M38.0679 28.3475V11.339C38.0679 8.20754 35.5298 5.66949 32.3984 5.66949H13.5001C10.3686 5.66949 7.83057 8.20754 7.83057 11.339V39.6864H34.5074C34.377 40.0682 34.2882 40.4669 34.2882 40.8808V43.4661H43.7373V40.8808C43.7373 40.0757 43.4577 39.3236 43.0022 38.6905V37.9402H42.2822C42.1556 37.8401 42.0441 37.7248 41.9023 37.6398L39.0128 35.9068L39.627 35.5383H43.0022V33.1212C43.4577 32.4881 43.7373 31.7359 43.7373 30.9328V30.2373C43.7373 29.1941 43.7373 28.3475 43.7373 28.3475H38.0679Z" fill="#0074FD"/>
<path d="M43.7373 45.3559H34.2881C33.245 45.3559 32.3983 44.5112 32.3983 43.4661V40.8827C32.3983 38.904 33.4528 37.0407 35.1499 36.0202L35.3389 35.9068L35.1518 35.7934C33.4528 34.7729 32.3983 32.9095 32.3983 30.9309V28.3475C32.3983 27.3024 33.245 26.4576 34.2881 26.4576H43.7373C44.7805 26.4576 45.6271 27.3024 45.6271 28.3475V30.9309C45.6271 32.9095 44.5726 34.7729 42.8755 35.7934L42.6866 35.9068L42.8736 36.0202C44.5726 37.0407 45.6271 38.904 45.6271 40.8827V43.4661C45.6271 44.5112 44.7805 45.3559 43.7373 45.3559ZM36.178 41.5763H41.8475V40.8827C41.8475 40.2213 41.4941 39.5995 40.929 39.2612L39.0127 38.1103L37.0945 39.2593C36.5314 39.5995 36.178 40.2213 36.178 40.8827V41.5763ZM36.178 30.2373V30.9309C36.178 31.5923 36.5314 32.2141 37.0964 32.5523L39.0127 33.7013L40.9309 32.5523C41.4941 32.2141 41.8475 31.5923 41.8475 30.9309V30.2373H36.178Z" fill="#0074FD"/>
</g>
<defs>
<clipPath id="clip0_360_3886">
<rect width="45.3559" height="45.3559" fill="white" transform="translate(0.27124)"/>
</clipPath>
</defs>
</svg>
