<svg width="47" height="46" viewBox="0 0 47 46" fill="none" xmlns="http://www.w3.org/2000/svg">
    <linearGradient id="Gradient1" x1="0" y1="1" x2="1" y2="0">
        <stop class="stop1" offset="20%" />
        <stop class="stop3" offset="100%" />
    </linearGradient>
    <style>
        <![CDATA[
              #rect1 { fill: url(#Gradient1); }
              .stop1 { stop-color: #0074FD; }
              .stop3 { stop-color: #2AF598; }
            ]]>
    </style>
<path id="rect1" d="M23.5254 42.1458C33.9626 42.1458 42.4237 33.6847 42.4237 23.2475C42.4237 12.8102 33.9626 4.34918 23.5254 4.34918C13.0881 4.34918 4.62708 12.8102 4.62708 23.2475C4.62708 33.6847 13.0881 42.1458 23.5254 42.1458Z" fill="#0074FD"/>
<path fill-rule="evenodd" clip-rule="evenodd" d="M32.4967 19.9672C33.5229 21.0029 32.7896 22.7604 31.3326 22.7604L27.305 22.7604L27.305 30.3197C27.305 32.408 25.6136 34.0994 23.5254 34.0994C21.4371 34.0994 19.7457 32.408 19.7457 30.3197L19.7457 22.7604L15.7188 22.7604C14.2617 22.7604 13.5285 21.0029 14.5546 19.9672L21.8418 12.6101C22.7697 11.6747 24.2816 11.6747 25.2095 12.6101L32.4967 19.9672Z" fill="white"/>
</svg>
