<svg width="47" height="46" viewBox="0 0 47 46" fill="none" xmlns="http://www.w3.org/2000/svg">
<path d="M9.45349 39.9067C8.72779 39.9067 8.0021 39.6308 7.44838 39.0771C6.34094 37.9716 6.34094 36.1743 7.44838 35.0688L35.7958 6.72133C36.9033 5.61389 38.6967 5.61389 39.8042 6.72133C40.9116 7.82688 40.9116 9.62411 39.8042 10.7297L11.4567 39.0771C10.9049 39.6308 10.1792 39.9067 9.45349 39.9067Z" fill="#0074FD"/>
<path opacity="0.35" d="M34.0213 39.9068C37.6743 39.9068 40.6357 36.9454 40.6357 33.2924C40.6357 29.6393 37.6743 26.678 34.0213 26.678C30.3682 26.678 27.4069 29.6393 27.4069 33.2924C27.4069 36.9454 30.3682 39.9068 34.0213 39.9068Z" fill="#0074FD"/>
<path opacity="0.35" d="M13.2331 19.1186C16.8861 19.1186 19.8475 16.1573 19.8475 12.5042C19.8475 8.8512 16.8861 5.88983 13.2331 5.88983C9.58002 5.88983 6.61865 8.8512 6.61865 12.5042C6.61865 16.1573 9.58002 19.1186 13.2331 19.1186Z" fill="#0074FD"/>
</svg>
