<svg width="46" height="46" viewBox="0 0 46 46" fill="none" xmlns="http://www.w3.org/2000/svg">
    <linearGradient id="Gradient1" x1="0" y1="1" x2="1" y2="0">
        <stop class="stop1" offset="20%" />
        <stop class="stop3" offset="100%" />
    </linearGradient>
    <style>
        <![CDATA[
              #rect1 { fill: url(#Gradient1); }
              .stop1 { stop-color: #0074FD; }
              .stop3 { stop-color: #2AF598; }
            ]]>
    </style>
<path d="M38.8975 34.2373H31.3382C29.7726 34.2373 28.5034 35.5064 28.5034 37.072C28.5034 38.6376 29.7726 39.9068 31.3382 39.9068H38.8975C40.4631 39.9068 41.7322 38.6376 41.7322 37.072C41.7322 35.5064 40.4631 34.2373 38.8975 34.2373Z" fill="#FFFFFF"/>
<path d="M25.6687 5.88983H10.5501C8.98449 5.88983 7.71533 7.15899 7.71533 8.72458C7.71533 10.2902 8.98449 11.5593 10.5501 11.5593H25.6687C27.2343 11.5593 28.5035 10.2902 28.5035 8.72458C28.5035 7.15899 27.2343 5.88983 25.6687 5.88983Z" fill="#FFFFFF"/>
<path opacity="0.35" d="M29.4483 21.0085H24.7237C24.7237 20.5073 24.5246 20.0266 24.1702 19.6722C23.8158 19.3178 23.3351 19.1186 22.8339 19.1186H20.9441V9.66949H15.2746V19.1186H13.3848C12.8835 19.1186 12.4029 19.3178 12.0484 19.6722C11.694 20.0266 11.4949 20.5073 11.4949 21.0085H7.71527C7.21406 21.0085 6.73337 21.2076 6.37896 21.562C6.02455 21.9164 5.82544 22.3971 5.82544 22.8983V28.5678C5.82544 29.069 6.02455 29.5497 6.37896 29.9041C6.73337 30.2585 7.21406 30.4576 7.71527 30.4576H11.4949C11.4949 30.9588 11.694 31.4395 12.0484 31.7939C12.4029 32.1484 12.8835 32.3475 13.3848 32.3475H22.8339C23.3351 32.3475 23.8158 32.1484 24.1702 31.7939C24.5246 31.4395 24.7237 30.9588 24.7237 30.4576H28.5034C29.0046 30.4576 29.4853 30.6567 29.8397 31.0111C30.1941 31.3656 30.3932 31.8462 30.3932 32.3475V38.017H39.8424V31.4025C39.8424 28.6459 38.7473 26.0021 36.798 24.0528C34.8488 22.1036 32.205 21.0085 29.4483 21.0085Z" fill="#6acafc"/>
</svg>
