<svg width="47" height="46" viewBox="0 0 47 46" fill="none" xmlns="http://www.w3.org/2000/svg">
<path opacity="0.35" d="M23.4746 42.1458C33.9118 42.1458 42.3729 33.6847 42.3729 23.2475C42.3729 12.8102 33.9118 4.34918 23.4746 4.34918C13.0374 4.34918 4.57629 12.8102 4.57629 23.2475C4.57629 33.6847 13.0374 42.1458 23.4746 42.1458Z" fill="#0074FD"/>
<path fill-rule="evenodd" clip-rule="evenodd" d="M21.5848 25.1373V32.6966C21.5848 33.7398 22.4314 34.5865 23.4746 34.5865C24.5178 34.5865 25.3644 33.7398 25.3644 32.6966V25.1373H32.9237C33.9669 25.1373 34.8136 24.2907 34.8136 23.2475C34.8136 22.2043 33.9669 21.3577 32.9237 21.3577H25.3644V13.7983C25.3644 12.7551 24.5178 11.9085 23.4746 11.9085C22.4314 11.9085 21.5848 12.7551 21.5848 13.7983V21.3577H14.0254C12.9823 21.3577 12.1356 22.2043 12.1356 23.2475C12.1356 24.2907 12.9823 25.1373 14.0254 25.1373H21.5848Z" fill="#0074FD"/>
</svg>
