<svg width="47" height="46" viewBox="0 0 47 46" fill="none" xmlns="http://www.w3.org/2000/svg">
<path opacity="0.35" d="M38.4914 34.017C38.4914 37.1484 35.9533 39.6864 32.8219 39.6864H15.8134C12.682 39.6864 10.1439 37.1484 10.1439 34.017V11.339C10.1439 8.20754 12.682 5.66949 15.8134 5.66949H32.8219C35.9533 5.66949 38.4914 8.20754 38.4914 11.339V34.017Z" fill="#0074FD"/>
<path d="M27.1525 34.0169V32.1271C27.1525 30.0389 25.4611 28.3475 23.3728 28.3475H8.25415C6.16589 28.3475 4.47449 30.0389 4.47449 32.1271V34.0169C4.47449 37.1484 7.01253 39.6864 10.144 39.6864H32.8219C29.6905 39.6864 27.1525 37.1484 27.1525 34.0169Z" fill="#0074FD"/>
<path d="M30.9321 17.0085H25.2626C24.2176 17.0085 23.3728 16.1618 23.3728 15.1187C23.3728 14.0755 24.2176 13.2288 25.2626 13.2288H30.9321C31.9772 13.2288 32.822 14.0755 32.822 15.1187C32.822 16.1618 31.9772 17.0085 30.9321 17.0085Z" fill="#0074FD"/>
<path d="M30.9321 24.5678H25.2626C24.2176 24.5678 23.3728 23.7211 23.3728 22.678C23.3728 21.6348 24.2176 20.7881 25.2626 20.7881H30.9321C31.9772 20.7881 32.822 21.6348 32.822 22.678C32.822 23.7211 31.9772 24.5678 30.9321 24.5678Z" fill="#0074FD"/>
<path d="M17.7033 17.0085C18.747 17.0085 19.5931 16.1624 19.5931 15.1187C19.5931 14.0749 18.747 13.2288 17.7033 13.2288C16.6596 13.2288 15.8135 14.0749 15.8135 15.1187C15.8135 16.1624 16.6596 17.0085 17.7033 17.0085Z" fill="#0074FD"/>
<path d="M17.7033 24.5678C18.747 24.5678 19.5931 23.7217 19.5931 22.678C19.5931 21.6342 18.747 20.7881 17.7033 20.7881C16.6596 20.7881 15.8135 21.6342 15.8135 22.678C15.8135 23.7217 16.6596 24.5678 17.7033 24.5678Z" fill="#0074FD"/>
</svg>
