<svg width="37" height="38" viewBox="0 0 37 38" fill="none" xmlns="http://www.w3.org/2000/svg">
<g clip-path="url(#clip0_360_3930)">
<path d="M21.2713 29.4813C22.1062 29.4813 22.7831 28.8045 22.7831 27.9695C22.7831 27.1345 22.1062 26.4576 21.2713 26.4576C20.4363 26.4576 19.7594 27.1345 19.7594 27.9695C19.7594 28.8045 20.4363 29.4813 21.2713 29.4813Z" fill="#0074FD"/>
<path d="M15.2238 29.4813C16.0588 29.4813 16.7356 28.8045 16.7356 27.9695C16.7356 27.1345 16.0588 26.4576 15.2238 26.4576C14.3888 26.4576 13.7119 27.1345 13.7119 27.9695C13.7119 28.8045 14.3888 29.4813 15.2238 29.4813Z" fill="#0074FD"/>
<path d="M9.17629 29.4813C10.0113 29.4813 10.6882 28.8045 10.6882 27.9695C10.6882 27.1345 10.0113 26.4576 9.17629 26.4576C8.34131 26.4576 7.66443 27.1345 7.66443 27.9695C7.66443 28.8045 8.34131 29.4813 9.17629 29.4813Z" fill="#0074FD"/>
<path d="M9.17629 23.4339C10.0113 23.4339 10.6882 22.757 10.6882 21.922C10.6882 21.087 10.0113 20.4102 9.17629 20.4102C8.34131 20.4102 7.66443 21.087 7.66443 21.922C7.66443 22.757 8.34131 23.4339 9.17629 23.4339Z" fill="#0074FD"/>
<path d="M15.2238 23.4339C16.0588 23.4339 16.7356 22.757 16.7356 21.922C16.7356 21.087 16.0588 20.4102 15.2238 20.4102C14.3888 20.4102 13.7119 21.087 13.7119 21.922C13.7119 22.757 14.3888 23.4339 15.2238 23.4339Z" fill="#0074FD"/>
<path d="M21.2713 23.4339C22.1062 23.4339 22.7831 22.757 22.7831 21.922C22.7831 21.087 22.1062 20.4102 21.2713 20.4102C20.4363 20.4102 19.7594 21.087 19.7594 21.922C19.7594 22.757 20.4363 23.4339 21.2713 23.4339Z" fill="#0074FD"/>
<path d="M27.3186 23.4339C28.1536 23.4339 28.8305 22.757 28.8305 21.922C28.8305 21.087 28.1536 20.4102 27.3186 20.4102C26.4836 20.4102 25.8068 21.087 25.8068 21.922C25.8068 22.757 26.4836 23.4339 27.3186 23.4339Z" fill="#0074FD"/>
<path d="M27.3186 17.3864C28.1536 17.3864 28.8305 16.7095 28.8305 15.8746C28.8305 15.0396 28.1536 14.3627 27.3186 14.3627C26.4836 14.3627 25.8068 15.0396 25.8068 15.8746C25.8068 16.7095 26.4836 17.3864 27.3186 17.3864Z" fill="#0074FD"/>
<path d="M21.2713 17.3864C22.1062 17.3864 22.7831 16.7095 22.7831 15.8746C22.7831 15.0396 22.1062 14.3627 21.2713 14.3627C20.4363 14.3627 19.7594 15.0396 19.7594 15.8746C19.7594 16.7095 20.4363 17.3864 21.2713 17.3864Z" fill="#0074FD"/>
<path d="M15.2238 17.3864C16.0588 17.3864 16.7356 16.7095 16.7356 15.8746C16.7356 15.0396 16.0588 14.3627 15.2238 14.3627C14.3888 14.3627 13.7119 15.0396 13.7119 15.8746C13.7119 16.7095 14.3888 17.3864 15.2238 17.3864Z" fill="#0074FD"/>
<path opacity="0.35" d="M14.5858 11.339C13.4186 14.0059 10.7623 15.8746 7.66448 15.8746C6.58803 15.8746 5.56752 15.6417 4.64075 15.2365V27.9695C4.64075 30.4746 6.67118 32.5051 9.17634 32.5051H27.3187C29.8239 32.5051 31.8543 30.4746 31.8543 27.9695V11.339H14.5858Z" fill="#0074FD"/>
<path d="M27.3187 5.2915H14.5858C14.991 6.21828 15.2238 7.23879 15.2238 8.31523C15.2238 9.39168 14.991 10.4122 14.5858 11.339C13.4186 14.0059 10.7623 15.8746 7.66448 15.8746C6.58803 15.8746 5.56752 15.6417 4.64075 15.2365V18.4538C5.59927 18.7395 6.61373 18.8983 7.66448 18.8983C12.4571 18.8983 16.5013 15.7098 17.803 11.339H31.8543V9.8271C31.8543 7.32194 29.8239 5.2915 27.3187 5.2915Z" fill="#0074FD"/>
<path opacity="0.35" d="M7.66442 15.8746C11.8393 15.8746 15.2237 12.4901 15.2237 8.31524C15.2237 4.14034 11.8393 0.75592 7.66442 0.75592C3.48953 0.75592 0.105103 4.14034 0.105103 8.31524C0.105103 12.4901 3.48953 15.8746 7.66442 15.8746Z" fill="#0074FD"/>
<path d="M10.8847 9.93295L9.12788 7.73923L8.7983 3.77966C8.75294 3.23539 8.32055 2.78787 7.75965 2.74101C7.13222 2.68809 6.58341 3.15375 6.5305 3.77966L6.15253 8.31525L6.14951 8.35607C6.12078 8.73857 6.27499 9.12712 6.59551 9.38414L9.28209 11.5355C9.6903 11.8621 10.2829 11.8757 10.7078 11.5355C11.1991 11.1424 11.2793 10.4243 10.8847 9.93295Z" fill="#0074FD"/>
</g>
<defs>
<clipPath id="clip0_360_3930">
<rect width="36.2847" height="36.2847" fill="white" transform="translate(0.105103 0.75592)"/>
</clipPath>
</defs>
</svg>
