<svg width="47" height="47" viewBox="0 0 47 47" fill="none" xmlns="http://www.w3.org/2000/svg">
<path d="M41.418 35.7753C40.8756 35.2329 37.748 32.1052 36.1246 30.4819C34.7658 32.6401 32.9383 34.4675 30.7802 35.8263C32.4035 37.4497 35.5312 40.5773 36.0736 41.1197C37.5495 42.5957 39.942 42.5957 41.418 41.1197C42.894 39.6438 42.894 37.2512 41.418 35.7753Z" fill="#0074FD"/>
<path opacity="0.35" d="M21.7374 38.4475C31.1309 38.4475 38.7458 30.8325 38.7458 21.439C38.7458 12.0455 31.1309 4.43054 21.7374 4.43054C12.3438 4.43054 4.72888 12.0455 4.72888 21.439C4.72888 30.8325 12.3438 38.4475 21.7374 38.4475Z" fill="#0074FD"/>
</svg>
