<svg width="40" height="40" viewBox="0 0 40 40" fill="none" xmlns="http://www.w3.org/2000/svg">
<path d="M35.6898 30.9767C35.2114 30.4984 32.4531 27.74 31.0214 26.3083C29.8231 28.2117 28.2114 29.8234 26.3081 31.0217C27.7398 32.4534 30.4981 35.2117 30.9764 35.69C32.2781 36.9917 34.3881 36.9917 35.6898 35.69C36.9914 34.3883 36.9914 32.2784 35.6898 30.9767Z" fill="#18DEDE"/>
<path opacity="0.35" d="M18.3335 33.3333C26.6178 33.3333 33.3335 26.6175 33.3335 18.3333C33.3335 10.049 26.6178 3.33325 18.3335 3.33325C10.0492 3.33325 3.3335 10.049 3.3335 18.3333C3.3335 26.6175 10.0492 33.3333 18.3335 33.3333Z" fill="#18DEDE"/>
<path d="M18.3335 20.8333C19.7142 20.8333 20.8335 19.714 20.8335 18.3333C20.8335 16.9525 19.7142 15.8333 18.3335 15.8333C16.9528 15.8333 15.8335 16.9525 15.8335 18.3333C15.8335 19.714 16.9528 20.8333 18.3335 20.8333Z" fill="#18DEDE"/>
<path d="M26.6665 20.8333C28.0472 20.8333 29.1665 19.714 29.1665 18.3333C29.1665 16.9525 28.0472 15.8333 26.6665 15.8333C25.2858 15.8333 24.1665 16.9525 24.1665 18.3333C24.1665 19.714 25.2858 20.8333 26.6665 20.8333Z" fill="#18DEDE"/>
<path d="M10 20.8333C11.3807 20.8333 12.5 19.714 12.5 18.3333C12.5 16.9525 11.3807 15.8333 10 15.8333C8.61929 15.8333 7.5 16.9525 7.5 18.3333C7.5 19.714 8.61929 20.8333 10 20.8333Z" fill="#18DEDE"/>
</svg>
