<svg width="46" height="46" viewBox="0 0 46 46" fill="none" xmlns="http://www.w3.org/2000/svg">
<path opacity="0.35" d="M30.712 35.7707C31.9933 35.0318 33.4692 34.9694 34.7467 35.4608C35.8126 35.8709 37.0316 35.5307 37.7554 34.6482C39.0461 33.0739 40.0874 31.288 40.8188 29.3472C41.2364 28.2379 40.8415 27.0189 39.9362 26.2516C38.9176 25.3937 38.2713 24.1161 38.2713 22.678C38.2713 21.2398 38.9176 19.9623 39.9343 19.1005C40.8396 18.3332 41.2364 17.1162 40.8169 16.005C40.0855 14.066 39.0461 12.2782 37.7535 10.704C37.0297 9.82145 35.8107 9.48128 34.7449 9.89138C33.4692 10.3865 31.9933 10.3241 30.712 9.58522C29.4269 8.84252 28.6331 7.58956 28.4253 6.23077C28.2552 5.11955 27.3745 4.23133 26.2652 4.04235C25.2522 3.87037 24.2128 3.77966 23.1526 3.77966C22.0924 3.77966 21.053 3.87037 20.0401 4.04235C18.9308 4.23133 18.052 5.11955 17.88 6.23077C17.6721 7.58956 16.8784 8.84252 15.5933 9.58522C14.312 10.3241 12.8361 10.3865 11.5585 9.89327C10.4927 9.48317 9.27372 9.82334 8.54992 10.7059C7.25916 12.2801 6.21976 14.066 5.48839 16.0069C5.06885 17.1162 5.46571 18.3351 6.37094 19.1005C7.38767 19.9623 8.03399 21.2398 8.03399 22.678C8.03399 24.1161 7.38767 25.3937 6.37094 26.2554C5.46571 27.0227 5.06885 28.2397 5.48839 29.351C6.21976 31.2899 7.25916 33.0777 8.55181 34.6519C9.27561 35.5345 10.4946 35.8747 11.5604 35.4646C12.8361 34.9694 14.312 35.0318 15.5933 35.7707C16.8784 36.5134 17.6721 37.7664 17.88 39.1252C18.0501 40.2364 18.9308 41.1246 20.0401 41.3136C21.053 41.4856 22.0924 41.5763 23.1526 41.5763C24.2128 41.5763 25.2522 41.4856 26.2652 41.3136C27.3745 41.1265 28.2552 40.2383 28.4253 39.1252C28.6331 37.7664 29.4269 36.5134 30.712 35.7707Z" fill="#0074FD"/>
<path d="M23.1526 15.1187C18.9779 15.1187 15.5933 18.5033 15.5933 22.678C15.5933 26.8526 18.9779 30.2373 23.1526 30.2373C27.3272 30.2373 30.7119 26.8526 30.7119 22.678C30.7119 18.5033 27.3272 15.1187 23.1526 15.1187Z" fill="#0074FD"/>
</svg>
