<svg width="46" height="47" viewBox="0 0 46 47" fill="none" xmlns="http://www.w3.org/2000/svg">
<path d="M16.9726 22.9793L28.8596 17.4931C27.4706 16.1891 26.5861 14.3749 26.4916 12.3433L14.6046 17.8295C15.9955 19.1297 16.8781 20.9458 16.9726 22.9793Z" fill="#0074FD"/>
<path d="M28.8616 29.1665L16.9745 23.6804C16.88 25.7119 15.9956 27.5281 14.6066 28.832L26.4936 34.3182C26.5881 32.2848 27.4706 30.4686 28.8616 29.1665Z" fill="#0074FD"/>
<path opacity="0.35" d="M9.44909 15.7695C5.27446 15.7695 1.88977 19.1542 1.88977 23.3289C1.88977 27.5035 5.27446 30.8882 9.44909 30.8882C13.6237 30.8882 17.0084 27.5035 17.0084 23.3289C17.0084 19.1542 13.6237 15.7695 9.44909 15.7695Z" fill="#0074FD"/>
<path opacity="0.35" d="M34.017 4.43054C29.8423 4.43054 26.4576 7.81523 26.4576 11.9899C26.4576 16.1645 29.8423 19.5492 34.017 19.5492C38.1916 19.5492 41.5763 16.1645 41.5763 11.9899C41.5763 7.81523 38.1916 4.43054 34.017 4.43054Z" fill="#0074FD"/>
<path opacity="0.35" d="M34.017 27.1085C29.8423 27.1085 26.4576 30.4932 26.4576 34.6678C26.4576 38.8425 29.8423 42.2272 34.017 42.2272C38.1916 42.2272 41.5763 38.8425 41.5763 34.6678C41.5763 30.4932 38.1916 27.1085 34.017 27.1085Z" fill="#0074FD"/>
</svg>
