<svg width="46" height="46" viewBox="0 0 46 46" fill="none" xmlns="http://www.w3.org/2000/svg">
<path opacity="0.35" d="M34.4406 15.6882H30.6609V21.3577H33.4957C34.0626 21.3577 34.4406 21.7356 34.4406 22.3026V35.5314C34.4406 36.0983 34.0626 36.4763 33.4957 36.4763H12.7075C12.1406 36.4763 11.7626 36.0983 11.7626 35.5314V22.3026C11.7626 21.7356 12.1406 21.3577 12.7075 21.3577H15.5423V15.6882H11.7626C8.54992 15.6882 6.09314 18.145 6.09314 21.3577V36.4763C6.09314 39.689 8.54992 42.1458 11.7626 42.1458H34.4406C37.6533 42.1458 40.1101 39.689 40.1101 36.4763V21.3577C40.1101 18.145 37.6533 15.6882 34.4406 15.6882Z" fill="#0074FD"/>
<path fill-rule="evenodd" clip-rule="evenodd" d="M30.2832 9.6407C31.0391 10.5856 30.4722 11.9085 29.3383 11.9085H26.8813V28.917C26.8813 30.0509 26.1254 30.8068 24.9915 30.8068H21.2118C20.0779 30.8068 19.322 30.0509 19.322 28.917V11.9085H16.8654C15.7315 11.9085 15.1646 10.5856 15.9205 9.6407L21.401 4.16019C22.3459 3.21528 23.8578 3.21528 24.8027 4.16019L30.2832 9.6407Z" fill="#0074FD"/>
</svg>
