<svg width="46" height="47" viewBox="0 0 46 47" fill="none" xmlns="http://www.w3.org/2000/svg">
<path opacity="0.35" d="M22.9492 42.2272C33.3865 42.2272 41.8475 33.7661 41.8475 23.3288C41.8475 12.8916 33.3865 4.43054 22.9492 4.43054C12.512 4.43054 4.0509 12.8916 4.0509 23.3288C4.0509 33.7661 12.512 42.2272 22.9492 42.2272Z" fill="#0074FD"/>
<path d="M13.5 25.6912C13.5 24.9655 13.7759 24.2398 14.3296 23.686L20.944 17.0716C22.0496 15.9642 23.8468 15.9642 24.9524 17.0716L31.5668 23.686C32.6742 24.7935 32.6742 26.5869 31.5668 27.6944C30.4612 28.8018 28.664 28.8018 27.5584 27.6944L22.9492 23.0851L18.3399 27.6944C17.2343 28.8018 15.4371 28.8018 14.3315 27.6944C13.7759 27.1425 13.5 26.4169 13.5 25.6912Z" fill="#0074FD"/>
</svg>
