<svg width="46" height="47" viewBox="0 0 46 47" fill="none" xmlns="http://www.w3.org/2000/svg">
<path opacity="0.35" d="M37.4042 16.9696L25.7439 5.19785C25.0031 4.44947 24.0279 4.07529 23.0509 4.07529C22.0739 4.07529 21.0987 4.44947 20.356 5.19785L8.69575 16.9696C7.05727 18.627 8.22896 21.439 10.561 21.439H35.5427C37.8728 21.439 39.0445 18.627 37.4042 16.9696Z" fill="#0074FD"/>
<path d="M8.69766 29.6881L20.3579 41.4599C21.1006 42.2083 22.0758 42.5843 23.0528 42.5825C24.0299 42.5825 25.005 42.2083 25.7477 41.4599L37.408 29.6881C39.0446 28.0308 37.8729 25.2187 35.5408 25.2187H10.561C8.22898 25.2187 7.05729 28.0308 8.69766 29.6881Z" fill="#0074FD"/>
</svg>
