<svg width="46" height="46" viewBox="0 0 46 46" fill="none" xmlns="http://www.w3.org/2000/svg">
<path opacity="0.35" d="M23.3085 8.72458C23.3085 6.11472 19.0771 4 13.8593 4C8.64149 4 4.41016 6.11472 4.41016 8.72458C4.41016 9.2783 4.41016 36.5183 4.41016 37.072C4.41016 39.6819 8.64149 41.7966 13.8593 41.7966C19.0771 41.7966 23.3085 39.6819 23.3085 37.072C23.3085 36.5183 23.3085 9.2783 23.3085 8.72458Z" fill="#0074FD"/>
<path opacity="0.35" d="M42.2068 16.2839C42.2068 13.674 37.9754 11.5593 32.7576 11.5593C27.5398 11.5593 23.3085 13.674 23.3085 16.2839C23.3085 16.8376 23.3085 32.7387 23.3085 33.2924C23.3085 35.9022 27.5398 38.017 32.7576 38.017C37.9754 38.017 42.2068 35.9022 42.2068 33.2924C42.2068 32.7387 42.2068 16.8376 42.2068 16.2839Z" fill="#0074FD"/>
<path d="M32.7576 32.3474C27.5398 32.3474 23.3085 30.2327 23.3085 27.6229C23.3085 30.6655 23.3085 33.0939 23.3085 33.2924C23.3085 35.9022 27.5398 38.0169 32.7576 38.0169C37.9754 38.0169 42.2068 35.9022 42.2068 33.2924C42.2068 33.0939 42.2068 30.6655 42.2068 27.6229C42.2068 30.2327 37.9754 32.3474 32.7576 32.3474Z" fill="#0074FD"/>
<path d="M13.8593 36.1271C8.64149 36.1271 4.41016 34.0124 4.41016 31.4025C4.41016 34.4452 4.41016 36.8736 4.41016 37.072C4.41016 39.6819 8.64149 41.7966 13.8593 41.7966C19.0771 41.7966 23.3085 39.6819 23.3085 37.072C23.3085 36.8736 23.3085 34.4452 23.3085 31.4025C23.3085 34.0124 19.0771 36.1271 13.8593 36.1271Z" fill="#0074FD"/>
<path d="M13.8593 24.7881C8.64149 24.7881 4.41016 22.6734 4.41016 20.0636C4.41016 23.1062 4.41016 25.5346 4.41016 25.7331C4.41016 28.3429 8.64149 30.4576 13.8593 30.4576C19.0771 30.4576 23.3085 28.3429 23.3085 25.7331C23.3085 25.5346 23.3085 23.1062 23.3085 20.0636C23.3085 22.6734 19.0771 24.7881 13.8593 24.7881Z" fill="#0074FD"/>
<path d="M13.8593 13.4492C8.64149 13.4492 4.41016 11.3344 4.41016 8.72458C4.41016 11.7672 4.41016 14.1956 4.41016 14.3941C4.41016 17.0039 8.64149 19.1186 13.8593 19.1186C19.0771 19.1186 23.3085 17.0039 23.3085 14.3941C23.3085 14.1956 23.3085 11.7672 23.3085 8.72458C23.3085 11.3344 19.0771 13.4492 13.8593 13.4492Z" fill="#0074FD"/>
<path d="M32.7576 21.0085C27.5398 21.0085 23.3085 18.8938 23.3085 16.2839C23.3085 19.3265 23.3085 21.755 23.3085 21.9534C23.3085 24.5633 27.5398 26.678 32.7576 26.678C37.9754 26.678 42.2068 24.5633 42.2068 21.9534C42.2068 21.755 42.2068 19.3265 42.2068 16.2839C42.2068 18.8938 37.9754 21.0085 32.7576 21.0085Z" fill="#0074FD"/>
</svg>
