<svg width="47" height="46" viewBox="0 0 47 46" fill="none" xmlns="http://www.w3.org/2000/svg">
<path d="M13.145 38.7729C15.6499 38.7729 17.6806 36.7422 17.6806 34.2373C17.6806 31.7323 15.6499 29.7017 13.145 29.7017C10.64 29.7017 8.60938 31.7323 8.60938 34.2373C8.60938 36.7422 10.64 38.7729 13.145 38.7729Z" fill="#0074FD"/>
<path d="M26.1847 42.9305C28.4809 42.9305 30.3424 41.0691 30.3424 38.7729C30.3424 36.4767 28.4809 34.6153 26.1847 34.6153C23.8885 34.6153 22.0271 36.4767 22.0271 38.7729C22.0271 41.0691 23.8885 42.9305 26.1847 42.9305Z" fill="#0074FD"/>
<path opacity="0.35" d="M38.0907 35.1822C40.0738 35.1822 41.6814 33.5746 41.6814 31.5915C41.6814 29.6085 40.0738 28.0009 38.0907 28.0009C36.1076 28.0009 34.5 29.6085 34.5 31.5915C34.5 33.5746 36.1076 35.1822 38.0907 35.1822Z" fill="#0074FD"/>
<path opacity="0.35" d="M39.7916 21.0085C41.5659 21.0085 43.0043 19.5701 43.0043 17.7958C43.0043 16.0214 41.5659 14.583 39.7916 14.583C38.0172 14.583 36.5789 16.0214 36.5789 17.7958C36.5789 19.5701 38.0172 21.0085 39.7916 21.0085Z" fill="#0074FD"/>
<path opacity="0.35" d="M29.9644 10.8034C31.53 10.8034 32.7991 9.53424 32.7991 7.96866C32.7991 6.40307 31.53 5.13391 29.9644 5.13391C28.3988 5.13391 27.1296 6.40307 27.1296 7.96866C27.1296 9.53424 28.3988 10.8034 29.9644 10.8034Z" fill="#0074FD"/>
<path d="M16.1687 14.772C19.1955 14.772 21.6492 12.3183 21.6492 9.29151C21.6492 6.26471 19.1955 3.811 16.1687 3.811C13.1419 3.811 10.6882 6.26471 10.6882 9.29151C10.6882 12.3183 13.1419 14.772 16.1687 14.772Z" fill="#0074FD"/>
<path d="M8.60938 26.111C11.4274 26.111 13.7119 23.8265 13.7119 21.0085C13.7119 18.1904 11.4274 15.9059 8.60938 15.9059C5.79132 15.9059 3.50684 18.1904 3.50684 21.0085C3.50684 23.8265 5.79132 26.111 8.60938 26.111Z" fill="#0074FD"/>
</svg>
