<svg width="47" height="46" viewBox="0 0 47 46" fill="none" xmlns="http://www.w3.org/2000/svg">
<path opacity="0.35" d="M34.9999 39.9068H12.322C9.19051 39.9068 6.65247 37.3687 6.65247 34.2373V11.5593C6.65247 8.42787 9.19051 5.88983 12.322 5.88983H34.9999C38.1314 5.88983 40.6694 8.42787 40.6694 11.5593V34.2373C40.6694 37.3687 38.1314 39.9068 34.9999 39.9068Z" fill="#0074FD"/>
<path d="M33.1102 17.2288H14.2119C13.1687 17.2288 12.322 16.3822 12.322 15.339V13.4492C12.322 12.406 13.1687 11.5593 14.2119 11.5593H33.1102C34.1533 11.5593 35 12.406 35 13.4492V15.339C35 16.3822 34.1533 17.2288 33.1102 17.2288Z" fill="#0074FD"/>
<path d="M19.8813 34.2373H14.2119C13.1687 34.2373 12.322 33.3907 12.322 32.3475V22.8983C12.322 21.8551 13.1687 21.0085 14.2119 21.0085H19.8813C20.9245 21.0085 21.7712 21.8551 21.7712 22.8983V32.3475C21.7712 33.3907 20.9245 34.2373 19.8813 34.2373Z" fill="#0074FD"/>
<path d="M33.1101 34.2373H27.4406C26.3974 34.2373 25.5508 33.3907 25.5508 32.3475V22.8983C25.5508 21.8551 26.3974 21.0085 27.4406 21.0085H33.1101C34.1533 21.0085 34.9999 21.8551 34.9999 22.8983V32.3475C34.9999 33.3907 34.1533 34.2373 33.1101 34.2373Z" fill="#0074FD"/>
</svg>
