<svg width="46" height="47" viewBox="0 0 46 47" fill="none" xmlns="http://www.w3.org/2000/svg">
<path opacity="0.35" d="M29.4364 42.2272H16.767C13.9077 42.2272 11.4962 40.0973 11.1409 37.2607L7.98303 11.9899H38.2203L35.0605 37.2607C34.7071 40.0973 32.2957 42.2272 29.4364 42.2272Z" fill="#0074FD"/>
<path d="M30.661 8.2102H15.5424V6.32037C15.5424 5.27719 16.389 4.43054 17.4322 4.43054H28.7712C29.8144 4.43054 30.661 5.27719 30.661 6.32037V8.2102Z" fill="#0074FD"/>
<path d="M36.3304 6.32037C35.1946 6.32037 11.0086 6.32037 9.8728 6.32037C7.78454 6.32037 6.09314 8.01177 6.09314 10.1C6.09314 12.1883 7.78454 13.8797 9.8728 13.8797C11.0086 13.8797 35.1946 13.8797 36.3304 13.8797C38.4187 13.8797 40.1101 12.1883 40.1101 10.1C40.1101 8.01177 38.4187 6.32037 36.3304 6.32037Z" fill="#0074FD"/>
</svg>
