<svg width="47" height="47" viewBox="0 0 47 47" fill="none" xmlns="http://www.w3.org/2000/svg">
<path opacity="0.35" d="M10.1441 17.6594V32.778H7.69863C6.53639 32.778 5.95243 34.1803 6.77073 35.0042L12.582 40.8703C13.3209 41.6167 14.5285 41.6167 15.2674 40.8703L21.0786 35.0042C21.895 34.1803 21.3092 32.778 20.1488 32.778H17.7034V17.6594C17.7034 15.5711 19.3948 13.8797 21.4831 13.8797H29.0424C31.1306 13.8797 32.822 15.5711 32.822 17.6594H40.3814C40.3814 11.3965 35.3053 6.32037 29.0424 6.32037H21.4831C15.2202 6.32037 10.1441 11.3965 10.1441 17.6594Z" fill="#0074FD"/>
<path d="M32.8219 17.6594V34.4656C32.8219 36.3479 34.1089 38.0941 35.9666 38.3965C38.3345 38.7801 40.3812 36.964 40.3812 34.6678V17.6594C40.3812 11.3965 35.3051 6.32037 29.0422 6.32037C29.0422 6.32037 32.8219 10.1 32.8219 17.6594Z" fill="#0074FD"/>
</svg>
