<svg width="47" height="47" viewBox="0 0 47 47" fill="none" xmlns="http://www.w3.org/2000/svg">
<path opacity="0.35" d="M23.4238 40.3373C32.8173 40.3373 40.4322 32.7224 40.4322 23.3288C40.4322 13.9353 32.8173 6.32037 23.4238 6.32037C14.0302 6.32037 6.41528 13.9353 6.41528 23.3288C6.41528 32.7224 14.0302 40.3373 23.4238 40.3373Z" fill="#0074FD"/>
<path d="M23.4238 4.43054C13.0298 4.43054 4.52551 12.9348 4.52551 23.3288C4.52551 33.7229 13.0298 42.2272 23.4238 42.2272C33.8179 42.2272 42.3221 33.7229 42.3221 23.3288C42.3221 12.9348 33.8179 4.43054 23.4238 4.43054ZM23.4238 38.4475C15.1086 38.4475 8.30517 31.6441 8.30517 23.3288C8.30517 15.0136 15.1086 8.2102 23.4238 8.2102C31.7391 8.2102 38.5425 15.0136 38.5425 23.3288C38.5425 31.6441 31.7391 38.4475 23.4238 38.4475Z" fill="#0074FD"/>
</svg>
