<svg width="24" height="24" viewBox="0 0 24 24" fill="none" xmlns="http://www.w3.org/2000/svg">
<path opacity="0.35" d="M12 2C6.47716 2 2.00001 6.47715 2 12C2 17.5228 6.47715 22 12 22C17.5228 22 22 17.5228 22 12C22 6.47715 17.5229 2 12 2Z" fill="#0074FD"/>
<path d="M7.00001 13.2495C7.00001 12.8655 7.14601 12.4815 7.43901 12.1885L10.939 8.68852C11.524 8.10252 12.475 8.10252 13.06 8.68852L16.56 12.1885C17.146 12.7745 17.146 13.7235 16.56 14.3095C15.975 14.8955 15.024 14.8955 14.439 14.3095L12 11.8705L9.56101 14.3095C8.97601 14.8955 8.02501 14.8955 7.44001 14.3095C7.14601 14.0175 7.00001 13.6335 7.00001 13.2495Z" fill="url(#paint0_linear_1590_7168)"/>
<defs>
<linearGradient id="paint0_linear_1590_7168" x1="8.02709" y1="10.7515" x2="17.5537" y2="13.3342" gradientUnits="userSpaceOnUse">
<stop stop-color="#00C1FF"/>
<stop offset="1" stop-color="#0024FF"/>
</linearGradient>
</defs>
</svg>
