<svg width="46" height="47" viewBox="0 0 46 47" fill="none" xmlns="http://www.w3.org/2000/svg">
<g clip-path="url(#clip0_360_3910)">
<path opacity="0.35" d="M37.2942 16.1324C35.1436 10.4043 29.6328 6.32037 23.1526 6.32037C15.3816 6.32037 8.98641 12.1864 8.13787 19.7287C3.77425 20.5659 0.474609 24.3909 0.474609 28.9983C0.474609 34.2162 4.70594 38.4475 9.92376 38.4475H34.4916C40.7545 38.4475 45.8305 33.3714 45.8305 27.1085C45.8305 21.8151 42.1983 17.3834 37.2942 16.1324Z" fill="#0074FD"/>
<path fill-rule="evenodd" clip-rule="evenodd" d="M30.3057 22.9925C31.124 23.8164 30.54 25.2187 29.3778 25.2187H25.0424V31.9824C25.0424 33.0256 24.1958 33.8722 23.1526 33.8722C22.1094 33.8722 21.2627 33.0256 21.2627 31.9824V25.2187H16.9276C15.7672 25.2187 15.1814 23.8164 15.9978 22.9906L21.809 17.1245C22.5479 16.378 23.7555 16.378 24.4945 17.1245L30.3057 22.9925Z" fill="#0074FD"/>
</g>
<defs>
<clipPath id="clip0_360_3910">
<rect width="45.3559" height="45.3559" fill="white" transform="translate(0.474609 0.650879)"/>
</clipPath>
</defs>
</svg>
