<svg width="46" height="46" viewBox="0 0 46 46" fill="none" xmlns="http://www.w3.org/2000/svg">
<path opacity="0.35" d="M34.0169 39.9068H11.3389C8.20748 39.9068 5.66943 37.3687 5.66943 34.2373V11.5593H34.0169C37.1483 11.5593 39.6864 14.0974 39.6864 17.2288V34.2373C39.6864 37.3687 37.1483 39.9068 34.0169 39.9068Z" fill="#5c96e4"/>
<path d="M33.0721 28.5678C34.6376 28.5678 35.9068 27.2986 35.9068 25.7331C35.9068 24.1675 34.6376 22.8983 33.0721 22.8983C31.5065 22.8983 30.2373 24.1675 30.2373 25.7331C30.2373 27.2986 31.5065 28.5678 33.0721 28.5678Z" fill="#FFFFFF"/>
<path d="M5.66943 11.5593C5.66943 8.42787 8.20748 5.88983 11.3389 5.88983H28.3474C31.4788 5.88983 34.0169 8.42787 34.0169 11.5593H5.66943Z" fill="#FFFFFF"/>
</svg>
