<svg width="411" height="147" viewBox="0 0 411 147" fill="none" xmlns="http://www.w3.org/2000/svg">
<path fill-rule="evenodd" clip-rule="evenodd" d="M59.3158 92.8421V131.526H36.1052V72.2106H36.1275C36.3792 64.9134 38.7627 57.8388 42.9974 51.8676C47.4811 45.5454 53.8186 40.7726 61.1333 38.2093C68.448 35.6461 76.3784 35.4191 83.8278 37.5597C91.2771 39.7004 97.8772 44.1028 102.715 50.1583L84.5113 64.7024C82.6878 62.4201 80.2002 60.7608 77.3926 59.954C74.5849 59.1472 71.5959 59.2327 68.8389 60.1988C66.082 61.1649 63.6934 62.9638 62.0035 65.3467C60.5633 67.3773 59.6912 69.7466 59.4649 72.2106H92.842V92.8421H59.3158Z" fill="url(#paint0_linear_358_3638)"/>
<path d="M121.486 129.174C110.345 138.777 96.5787 144.816 81.9684 146.511C67.3581 148.205 52.5755 145.477 39.5321 138.68C26.4888 131.883 15.7849 121.328 8.80458 108.382C1.82427 95.4356 -1.1113 80.6928 0.377511 66.0601C1.86632 51.4274 7.71102 37.578 17.1558 26.3028C26.6005 15.0276 39.2108 6.84543 53.3558 2.81434C67.5009 -1.21675 82.53 -0.911294 96.4996 3.69121C110.469 8.29371 122.737 16.9815 131.715 28.6312L113.236 42.8743C107.107 34.9227 98.7337 28.9928 89.1986 25.8513C79.6635 22.7098 69.4053 22.5013 59.7504 25.2528C50.0955 28.0042 41.4883 33.5891 35.0417 41.2851C28.5951 48.981 24.6057 58.4341 23.5895 68.4218C22.5733 78.4095 24.577 88.4724 29.3415 97.3091C34.106 106.146 41.412 113.35 50.3149 117.989C59.2177 122.629 69.3078 124.491 79.2802 123.334C89.2526 122.177 98.6486 118.055 106.253 111.501L121.486 129.174Z" fill="url(#paint1_linear_358_3638)"/>
<path d="M143.578 51.6243C143.578 62.6682 151.256 70.399 162.142 70.399C170.924 70.399 177.551 65.5081 179.654 57.5144H169.767C168.242 60.6698 165.455 62.2475 162.037 62.2475C156.515 62.2475 152.728 58.1455 152.728 51.6243C152.728 45.1031 156.515 41.001 162.037 41.001C165.455 41.001 168.242 42.5787 169.767 45.7342H179.654C177.551 37.7404 170.924 32.797 162.142 32.797C151.256 32.797 143.578 40.5803 143.578 51.6243Z" fill="#222222"/>
<path d="M210.352 70.1361H219.871L206.513 33.2177H196.1L182.742 70.1361H192.156L194.365 63.6149H208.144L210.352 70.1361ZM205.83 56.6729H196.732L201.254 43.1572L205.83 56.6729Z" fill="#222222"/>
<path d="M224.989 33.2177V70.1361H245.762V63.1941H233.981V33.2177H224.989Z" fill="#222222"/>
<path d="M276.294 70.1361H285.812L272.455 33.2177H262.042L248.684 70.1361H258.097L260.306 63.6149H274.085L276.294 70.1361ZM271.771 56.6729H262.673L267.196 43.1572L271.771 56.6729Z" fill="#222222"/>
<path d="M290.93 70.1361H299.923V47.943L308.232 70.1361H315.489L323.746 47.9955V70.1361H332.739V33.2177H322.168L311.913 58.7766L301.553 33.2177H290.93V70.1361Z" fill="#222222"/>
<path d="M340.1 55.253C340.1 65.4555 346.779 70.5042 355.351 70.5042C363.871 70.5042 371.023 65.4555 371.023 55.253V33.2177H362.03V55.3056C362.03 59.6706 359.769 62.1949 355.509 62.1949C351.249 62.1949 349.093 59.6706 349.093 55.3056V33.2177H340.1V55.253Z" fill="#222222"/>
<path d="M405.211 59.1447C405.211 46.786 386.962 49.6784 386.962 43.2624C386.962 40.9484 388.592 39.8441 390.749 39.8966C393.168 39.9492 394.851 41.3692 395.008 43.7357H404.738C404.369 36.6886 398.953 32.6918 390.906 32.6918C383.176 32.6918 377.443 36.5835 377.443 43.578C377.338 56.6729 395.797 52.9916 395.797 59.8284C395.797 61.9846 394.114 63.2993 391.485 63.2993C388.961 63.2993 387.172 61.932 386.909 59.0921H377.338C377.601 66.5599 383.807 70.5042 391.748 70.5042C400.373 70.5042 405.211 65.3503 405.211 59.1447Z" fill="#222222"/>
<path d="M148.393 124.053H153.086V107.857H165.775V104.04H153.086V91.919H168.715V88.1021H148.393V124.053Z" fill="#555555"/>
<path d="M182.378 124.053H187.072V88.1021H182.378V124.053Z" fill="#555555"/>
<path d="M226.638 88.0505V116.625L207.76 88.0505H203.066V124.053H207.76V95.4263L226.638 124.053H231.332V88.0505H226.638Z" fill="#555555"/>
<path d="M271.466 124.053H276.418L263.472 88.3084H258.056L245.058 124.053H250.01L252.898 116.058H268.578L271.466 124.053ZM267.237 112.241H254.239L260.738 94.0853L267.237 112.241Z" fill="#555555"/>
<path d="M313.649 88.0505V116.625L294.771 88.0505H290.078V124.053H294.771V95.4263L313.649 124.053H318.343V88.0505H313.649Z" fill="#555555"/>
<path d="M332.585 106.052C332.585 116.832 340.477 124.362 350.534 124.362C358.323 124.362 364.512 120.494 367.194 113.582H361.572C359.612 117.863 355.796 120.287 350.534 120.287C343.004 120.287 337.382 114.82 337.382 106.052C337.382 97.2316 343.004 91.7642 350.534 91.7642C355.796 91.7642 359.612 94.1884 361.572 98.5211H367.194C364.512 91.5579 358.323 87.6379 350.534 87.6379C340.477 87.6379 332.585 95.2716 332.585 106.052Z" fill="#555555"/>
<path d="M401.518 88.0505H382.176V124.053H401.518V120.184H386.87V107.805H399.971V103.937H386.87V91.919H401.518V88.0505Z" fill="#555555"/>
<defs>
<linearGradient id="paint0_linear_358_3638" x1="99.29" y1="85.1052" x2="46.476" y2="121.942" gradientUnits="userSpaceOnUse">
<stop stop-color="#00C1FF"/>
<stop offset="1" stop-color="#0024FF"/>
</linearGradient>
<linearGradient id="paint1_linear_358_3638" x1="38.6842" y1="122.5" x2="150.868" y2="36.1053" gradientUnits="userSpaceOnUse">
<stop stop-color="#0074FD"/>
<stop offset="1" stop-color="#2AF598"/>
</linearGradient>
</defs>
</svg>
