<svg width="54" height="54" viewBox="0 0 54 54" fill="none" xmlns="http://www.w3.org/2000/svg">
<path fill-rule="evenodd" clip-rule="evenodd" d="M21.7875 34.1014V48.3102H13.2622V26.5233H13.2704C13.3629 23.843 14.2384 21.2445 15.7938 19.0513C17.4407 16.7291 19.7685 14.976 22.4552 14.0346C25.1419 13.0931 28.0548 13.0097 30.791 13.796C33.5271 14.5822 35.9514 16.1993 37.7284 18.4235L31.042 23.7656C30.3722 22.9273 29.4585 22.3178 28.4273 22.0215C27.396 21.7251 26.2981 21.7565 25.2855 22.1114C24.2729 22.4662 23.3955 23.127 22.7748 24.0022C22.2458 24.7481 21.9255 25.6183 21.8424 26.5234H34.1017V34.1014H21.7875Z" fill="url(#paint0_linear_665_4205)"/>
<path d="M44.6222 47.4463C40.53 50.9733 35.4738 53.1915 30.1074 53.814C24.7409 54.4364 19.3112 53.4345 14.5203 50.9378C9.72947 48.4411 5.79786 44.5644 3.23396 39.8092C0.670064 35.0539 -0.408184 29.6388 0.138662 24.2642C0.685507 18.8895 2.83229 13.8026 6.30138 9.66114C9.77047 5.51972 14.4023 2.51436 19.5978 1.03372C24.7934 -0.446918 30.3136 -0.334722 35.4447 1.3558C40.5758 3.04632 45.0817 6.2374 48.3797 10.5164L41.5919 15.7479C39.3409 12.8273 36.2653 10.6492 32.7631 9.49529C29.2608 8.34141 25.4929 8.26483 21.9466 9.27545C18.4003 10.2861 15.2388 12.3374 12.871 15.1642C10.5031 17.991 9.03778 21.4631 8.66452 25.1316C8.29127 28.8002 9.02724 32.4963 10.7773 35.742C12.5273 38.9878 15.2108 41.6338 18.4809 43.338C21.7509 45.0421 25.4571 45.726 29.12 45.3012C32.7829 44.8763 36.2341 43.3623 39.0272 40.9548L44.6222 47.4463Z" fill="url(#paint1_linear_665_4205)"/>
<defs>
<linearGradient id="paint0_linear_665_4205" x1="36.4703" y1="31.2596" x2="17.0714" y2="44.7899" gradientUnits="userSpaceOnUse">
<stop stop-color="#00C1FF"/>
<stop offset="1" stop-color="#0024FF"/>
</linearGradient>
<linearGradient id="paint1_linear_665_4205" x1="14.2089" y1="44.9948" x2="55.4146" y2="13.2616" gradientUnits="userSpaceOnUse">
<stop stop-color="#0074FD"/>
<stop offset="1" stop-color="#2AF598"/>
</linearGradient>
</defs>
</svg>
