<?xml version="1.0" encoding="utf-8"?>
<!-- Generator: Adobe Illustrator 24.2.0, SVG Export Plug-In . SVG Version: 6.00 Build 0)  -->
<svg version="1.1" id="Layer_1" xmlns="http://www.w3.org/2000/svg" xmlns:xlink="http://www.w3.org/1999/xlink" x="0px" y="0px"
	 viewBox="0 0 311.1 91" style="enable-background:new 0 0 311.1 91;" xml:space="preserve">
<style type="text/css">
	.st0{fill:url(#SVGID_1_);}
	.st1{fill:url(#SVGID_2_);}
	.st2{fill:#4B21CD;}
</style>
<g>
	<linearGradient id="SVGID_1_" gradientUnits="userSpaceOnUse" x1="43.2281" y1="83.9576" x2="43.2281" y2="6.6031">
		<stop  offset="0" style="stop-color:#4B21CD"/>
		<stop  offset="1" style="stop-color:#FD595F"/>
	</linearGradient>
	<path class="st0" d="M60.2,44.7h-1c-0.8,0-1.5,0-2.3,0c-0.5,0-1,0-1.5,0v-0.1H40c0.3-3.1,2.2-5.7,5.1-7.2c3.6-1.8,7.2-1.2,10.5,1.7
		l0.7,0.6l8.7-8.7l-2-1.6c-7.1-5.7-15-6.8-22.9-3.1c-7.9,3.7-12.1,10.3-12.3,19c-0.1,4.9-0.1,9.9,0,14.7c0,1.9,0,3.9,0,5.8
		c-0.2-0.2-0.3-0.3-0.5-0.5L26.5,66l0,0l0.7-0.8c-0.2-0.2-0.4-0.5-0.6-0.7l-0.2-0.2c-0.2-0.2-0.4-0.4-0.5-0.7l-0.2-0.3
		c-0.1-0.1-0.2-0.3-0.3-0.4c-2.2-2.9-3.7-6.2-4.7-9.8l-0.2-0.7c-0.5-2.2-0.8-4.5-0.8-6.9c0-4.6,1-9.1,3.1-13.2
		c0.7-1.5,1.6-2.9,2.6-4.2c0.6-0.8,1.3-1.7,2-2.4c4-4.4,9.1-7.4,14.8-8.7c0.6-0.1,1.2-0.3,1.8-0.4c2.3-0.4,4.6-0.5,6.8-0.4
		c5.9,0.4,11.5,2.5,16.2,6.1c0.4,0.3,0.8,0.7,1.2,1l0.5,0.4c0.3,0.3,0.6,0.6,0.9,0.9l0.7,0.7l5.5-5.5l2.1-2l1-1l0,0l0.2-0.2
		l-0.7-0.7C70.5,8.1,60.1,3.8,49,3.8C26,3.8,7.3,22.6,7.3,45.6c0,19,12.8,35.6,31.2,40.4l1.3,0.3V56.7h20.3V44.7z M27.8,66.2
		c0,0,0,0.1,0,0.1l-0.5,0.5l0,0L27.8,66.2z"/>
	<linearGradient id="SVGID_2_" gradientUnits="userSpaceOnUse" x1="63.6753" y1="83.9576" x2="63.6753" y2="6.6031">
		<stop  offset="0" style="stop-color:#4B21CD"/>
		<stop  offset="1" style="stop-color:#FD595F"/>
	</linearGradient>
	<path class="st1" d="M70.5,65.6l-0.7,0.7c-5.5,5.5-12.8,8.6-20.6,8.6l-1,0v12.4l1.1,0c11.1,0,21.5-4.4,29.4-12.2l0.7-0.7L70.5,65.6
		z"/>
</g>
<path class="st2" d="M114.6,40.5c-2.1,0-4-0.4-5.7-1.1c-1.8-0.7-3.3-1.7-4.6-2.9c-1.3-1.3-2.3-2.7-3.1-4.5c-0.7-1.7-1.1-3.6-1.1-5.5
	c0-2,0.4-3.9,1.1-5.6c0.7-1.7,1.7-3.2,3.1-4.4c1.3-1.2,2.8-2.2,4.6-2.9c1.7-0.7,3.6-1.1,5.7-1.1c2.1,0,4.1,0.3,5.8,1
	c1.7,0.7,3.2,1.6,4.5,2.8l-4.6,4.6c-0.6-0.7-1.4-1.3-2.4-1.7c-0.9-0.4-2.1-0.6-3.3-0.6c-1.1,0-2.1,0.2-3,0.5
	c-0.9,0.4-1.7,0.9-2.4,1.6c-0.7,0.7-1.2,1.5-1.5,2.5c-0.4,1-0.6,2.1-0.6,3.3c0,1.2,0.2,2.3,0.6,3.3c0.4,1,0.9,1.8,1.5,2.5
	c0.7,0.7,1.4,1.2,2.4,1.6c0.9,0.4,1.9,0.6,3,0.6c1.3,0,2.4-0.2,3.4-0.6c1-0.4,1.8-1,2.5-1.7l4.6,4.6c-1.3,1.2-2.8,2.1-4.5,2.8
	C118.8,40.2,116.9,40.5,114.6,40.5z"/>
<path class="st2" d="M126.2,40.1L136.7,13h6.6l10.4,27.1h-7.2l-7.8-22.8h2.5l-8,22.8H126.2z M132.6,35.4v-5.4h15v5.4H132.6z"/>
<path class="st2" d="M157.2,40.1V13h6.8v27.1H157.2z M162.7,40.1v-5.9h13.1v5.9H162.7z"/>
<path class="st2" d="M177.2,40.1L187.7,13h6.6l10.4,27.1h-7.2l-7.8-22.8h2.5l-8,22.8H177.2z M183.6,35.4v-5.4h15v5.4H183.6z"/>
<path class="st2" d="M208.2,40.1V13h4.9l10.4,15.7h-2.3L231.6,13h4.9v27.1h-6.8V24.3l1.1,0.3l-6.2,9.4h-4.4l-6.2-9.4l1.1-0.3v15.8
	H208.2z"/>
<path class="st2" d="M253.5,40.5c-2.3,0-4.3-0.5-6.1-1.4c-1.7-1-3.1-2.3-4.1-4c-1-1.7-1.5-3.6-1.5-5.8V13h6.8v16.8
	c0,1,0.2,1.8,0.6,2.5c0.4,0.7,1,1.2,1.7,1.6c0.7,0.4,1.5,0.6,2.4,0.6c0.9,0,1.7-0.2,2.4-0.6c0.7-0.4,1.2-0.9,1.6-1.6
	c0.4-0.7,0.6-1.5,0.6-2.5V13h6.9v16.3c0,2.2-0.5,4.1-1.5,5.8c-1,1.7-2.3,3-4,4S255.8,40.5,253.5,40.5z"/>
<path class="st2" d="M278.5,40.5c-2.3,0-4.2-0.3-5.9-1c-1.7-0.7-3.2-1.8-4.6-3.3l4.3-4.4c0.9,1,2,1.8,3,2.3c1.1,0.5,2.3,0.8,3.6,0.8
	c1.1,0,2-0.2,2.7-0.6c0.6-0.4,0.9-0.9,0.9-1.6c0-0.6-0.2-1.2-0.7-1.6c-0.5-0.4-1.1-0.8-1.8-1.1c-0.8-0.3-1.6-0.6-2.5-0.9
	c-0.9-0.3-1.8-0.7-2.7-1.1c-0.9-0.4-1.7-0.9-2.5-1.5c-0.8-0.6-1.4-1.4-1.8-2.3c-0.5-0.9-0.7-2.1-0.7-3.4c0-1.7,0.4-3.2,1.2-4.4
	c0.8-1.2,2-2.2,3.5-2.8c1.5-0.7,3.2-1,5.2-1c2,0,3.8,0.3,5.4,1c1.7,0.7,3,1.6,4.1,2.8l-4.4,4.3c-0.8-0.8-1.6-1.4-2.5-1.8
	c-0.8-0.4-1.8-0.6-2.8-0.6c-0.9,0-1.7,0.2-2.2,0.5c-0.5,0.3-0.8,0.8-0.8,1.4c0,0.6,0.2,1.1,0.7,1.5c0.5,0.4,1.1,0.7,1.8,1
	c0.8,0.3,1.6,0.6,2.5,0.9c0.9,0.3,1.8,0.7,2.7,1.1c0.9,0.4,1.7,0.9,2.5,1.6c0.8,0.6,1.4,1.4,1.8,2.4c0.5,1,0.7,2.1,0.7,3.5
	c0,2.7-0.9,4.8-2.8,6.3C284.6,39.8,282,40.5,278.5,40.5z"/>
<path class="st2" d="M101.5,78.4V51.2h6.8v27.1H101.5z M106.9,57v-5.8h14V57H106.9z M106.9,68.2v-5.8h13.4v5.8H106.9z"/>
<path class="st2" d="M125.5,78.4V51.2h6.8v27.1H125.5z"/>
<path class="st2" d="M138.1,78.4V51.2h4.8l2.1,5.5v21.6H138.1z M156.8,78.4l-15.8-20.1l1.9-7l15.9,20.1L156.8,78.4z M156.8,78.4
	l-1.8-5.7V51.2h6.8v27.1H156.8z"/>
<path class="st2" d="M165.7,78.4l10.5-27.1h6.6l10.4,27.1H186l-7.8-22.8h2.5l-8,22.8H165.7z M172,73.6v-5.4h15v5.4H172z"/>
<path class="st2" d="M196.7,78.4V51.2h4.8l2.1,5.5v21.6H196.7z M215.4,78.4l-15.8-20.1l1.9-7l15.9,20.1L215.4,78.4z M215.4,78.4
	l-1.8-5.7V51.2h6.8v27.1H215.4z"/>
<path class="st2" d="M239.4,78.8c-2.1,0-4-0.4-5.7-1.1c-1.8-0.7-3.3-1.7-4.6-2.9c-1.3-1.3-2.3-2.7-3.1-4.5c-0.7-1.7-1.1-3.6-1.1-5.5
	c0-2,0.4-3.9,1.1-5.6c0.7-1.7,1.7-3.2,3.1-4.4c1.3-1.2,2.8-2.2,4.6-2.9c1.7-0.7,3.6-1.1,5.7-1.1c2.1,0,4.1,0.3,5.8,1
	c1.7,0.7,3.2,1.6,4.5,2.8l-4.6,4.6c-0.6-0.7-1.4-1.3-2.4-1.7c-0.9-0.4-2.1-0.6-3.3-0.6c-1.1,0-2.1,0.2-3,0.5
	c-0.9,0.4-1.7,0.9-2.4,1.6c-0.7,0.7-1.2,1.5-1.5,2.5c-0.4,1-0.6,2.1-0.6,3.3c0,1.2,0.2,2.3,0.6,3.3c0.4,1,0.9,1.8,1.5,2.5
	c0.7,0.7,1.4,1.2,2.4,1.6c0.9,0.4,1.9,0.6,3,0.6c1.3,0,2.4-0.2,3.4-0.6c1-0.4,1.8-1,2.5-1.7l4.6,4.6c-1.3,1.2-2.8,2.1-4.5,2.8
	C243.6,78.4,241.7,78.8,239.4,78.8z"/>
<path class="st2" d="M253.7,78.4V51.2h6.8v27.1H253.7z M259.1,57v-5.8h14.5V57H259.1z M259.1,67.3v-5.6h13.3v5.6H259.1z M259.1,78.4
	v-5.8h14.7v5.8H259.1z"/>
</svg>
